<?xml version="1.0" encoding="utf-8"?>
<!-- Generator: Adobe Illustrator 25.4.1, SVG Export Plug-In . SVG Version: 6.00 Build 0)  -->
<svg version="1.1" id="Layer_1" xmlns="http://www.w3.org/2000/svg" xmlns:xlink="http://www.w3.org/1999/xlink" x="0px" y="0px"
	 viewBox="0 0 280.5 249.3" style="enable-background:new 0 0 280.5 249.3;" xml:space="preserve">
<style type="text/css">
	.st0{fill:none;}
	.st1{fill:#1F77B4;stroke:#1F77B4;stroke-linejoin:round;}
	.st2{fill:#FF7F0E;stroke:#FF7F0E;stroke-linejoin:round;}
	.st3{fill:#279E68;stroke:#279E68;stroke-linejoin:round;}
	.st4{fill:#D62728;stroke:#D62728;stroke-linejoin:round;}
	.st5{fill:#AA40FC;stroke:#AA40FC;stroke-linejoin:round;}
	.st6{fill:#8C564B;stroke:#8C564B;stroke-linejoin:round;}
	.st7{fill:#E377C2;stroke:#E377C2;stroke-linejoin:round;}
	.st8{fill:#B5BD61;stroke:#B5BD61;stroke-linejoin:round;}
	.st9{fill:#17BECF;stroke:#17BECF;stroke-linejoin:round;}
	.st10{fill:#AEC7E8;stroke:#AEC7E8;stroke-linejoin:round;}
</style>
<g id="figure_1">
	<g id="patch_1">
		<path class="st0" d="M0,249.3h280.5V0H0V249.3z"/>
	</g>
	<g id="axes_1">
		
			<image style="overflow:visible;enable-background:new    ;" width="854" height="832" id="imagec51cd9c496" xlink:href="B8C700D2A0949E64.png"  transform="matrix(0.24 0 0 -0.24 17.04 232.32)">
		</image>
		<g id="PathCollection_1">
		</g>
		<g id="PathCollection_2">
		</g>
		<g id="PathCollection_3">
		</g>
		<g id="PathCollection_4">
		</g>
		<g id="PathCollection_5">
		</g>
		<g id="PathCollection_6">
		</g>
		<g id="PathCollection_7">
		</g>
		<g id="PathCollection_8">
		</g>
		<g id="PathCollection_9">
		</g>
		<g id="PathCollection_10">
		</g>
		<g id="legend_1">
			<g id="PathCollection_11">
				<g>
					<g>
						<path id="mabf86ead58" class="st1" d="M236.4,109.9c0.8,0,1.6-0.3,2.1-0.9c0.6-0.6,0.9-1.3,0.9-2.1s-0.3-1.6-0.9-2.1
							c-0.6-0.6-1.3-0.9-2.1-0.9s-1.6,0.3-2.1,0.9c-0.6,0.6-0.9,1.3-0.9,2.1s0.3,1.6,0.9,2.1C234.9,109.6,235.6,109.9,236.4,109.9z"
							/>
					</g>
				</g>
			</g>
			<g id="text_2">
				<g transform="translate(239.04 107.932187)scale(0.04 -0.04)">
					<g>
						<path id="ArialMT-49" d="M9.3,0v71.6h9.5V0H9.3z"/>
					</g>
					<g>
						<path id="ArialMT-4e" d="M35.4,0v71.6h9.7l37.6-56.2v56.2h9.1V0h-9.7L44.5,56.2V0H35.4z"/>
					</g>
					<g>
						<path id="ArialMT-46" d="M108.2,0v71.6h48.3v-8.4h-38.8V41h33.6v-8.5h-33.6V0H108.2z"/>
					</g>
					<g>
						<path id="ArialMT-2d" d="M164.3,21.5v8.8h27v-8.8H164.3z"/>
					</g>
					<g>
						<path id="ArialMT-42" d="M201.7,0v71.6h26.9c5.5,0,9.9-0.7,13.2-2.2s5.9-3.7,7.8-6.7c1.9-3,2.8-6.2,2.8-9.5
							c0-3.1-0.8-5.9-2.5-8.6c-1.7-2.7-4.2-4.9-7.5-6.5c4.3-1.3,7.6-3.4,10-6.5c2.3-3.1,3.5-6.7,3.5-10.8c0-3.4-0.7-6.5-2.1-9.4
							c-1.4-2.9-3.2-5.1-5.2-6.7s-4.7-2.7-7.8-3.5c-3.1-0.8-7-1.2-11.5-1.2H201.7z M211.2,41.5h15.5c4.2,0,7.2,0.3,9,0.8
							c2.4,0.7,4.2,1.9,5.4,3.6c1.2,1.7,1.8,3.8,1.8,6.3c0,2.4-0.6,4.5-1.7,6.3c-1.1,1.8-2.8,3.1-4.9,3.7c-2.1,0.7-5.7,1-10.9,1
							h-14.3V41.5z M211.2,8.5H229c3.1,0,5.2,0.1,6.4,0.3c2.2,0.4,4,1,5.5,1.9c1.5,0.9,2.7,2.2,3.6,4c0.9,1.7,1.4,3.8,1.4,6
							c0,2.7-0.7,5-2,7c-1.4,2-3.3,3.4-5.7,4.2c-2.4,0.8-5.9,1.2-10.5,1.2h-16.5V8.5z"/>
					</g>
					<g>
						<path id="ArialMT-65" d="M303.2,16.7l9.1-1.1c-1.4-5.3-4.1-9.4-8-12.4c-3.9-2.9-8.8-4.4-14.8-4.4c-7.6,0-13.6,2.3-18,7
							c-4.4,4.7-6.7,11.2-6.7,19.7c0,8.7,2.2,15.5,6.7,20.3C276,50.6,281.8,53,289,53c6.9,0,12.6-2.4,17-7.1s6.6-11.4,6.6-19.9
							c0-0.5,0-1.3,0-2.3h-38.7c0.3-5.7,1.9-10.1,4.8-13.1c2.9-3,6.5-4.5,10.8-4.5c3.2,0,6,0.8,8.2,2.5
							C300,10.3,301.8,13,303.2,16.7z M274.3,30.9h29c-0.4,4.4-1.5,7.6-3.3,9.8c-2.8,3.4-6.4,5.1-10.9,5.1c-4,0-7.4-1.3-10.2-4
							S274.6,35.4,274.3,30.9z"/>
					</g>
					<g>
						<path id="ArialMT-74_00000060002702812462388830000008171943135660083099_" d="M342.5,7.9l1.3-7.8c-2.5-0.5-4.7-0.8-6.6-0.8
							c-3.2,0-5.7,0.5-7.4,1.5c-1.8,1-3,2.3-3.7,4s-1.1,5.1-1.1,10.4V45h-6.4v6.8h6.4v12.8l8.7,5.3V51.9h8.8V45h-8.8V14.7
							c0-2.5,0.2-4.1,0.5-4.8c0.3-0.7,0.8-1.3,1.5-1.7s1.7-0.6,3-0.6C339.6,7.5,340.9,7.6,342.5,7.9z"/>
					</g>
					<g>
						<path id="ArialMT-61" d="M384.9,6.4c-3.3-2.8-6.4-4.7-9.4-5.9c-3-1.1-6.2-1.7-9.7-1.7c-5.7,0-10.1,1.4-13.1,4.2
							s-4.6,6.3-4.6,10.7c0,2.5,0.6,4.9,1.7,7c1.2,2.1,2.7,3.8,4.5,5.1s4,2.2,6.3,2.9c1.7,0.5,4.3,0.9,7.8,1.3
							c7.1,0.8,12.3,1.8,15.7,3c0,1.2,0,2,0,2.3c0,3.6-0.8,6.1-2.5,7.6c-2.2,2-5.6,3-10,3c-4.1,0-7.2-0.7-9.2-2.2s-3.4-4-4.4-7.7
							l-8.6,1.2c0.8,3.7,2.1,6.6,3.9,8.9s4.4,4,7.8,5.2c3.4,1.2,7.3,1.8,11.8,1.8c4.4,0,8-0.5,10.8-1.6c2.8-1,4.8-2.4,6.1-3.9
							c1.3-1.6,2.2-3.6,2.7-6c0.3-1.5,0.4-4.2,0.4-8.1V21.7c0-8.2,0.2-13.3,0.6-15.5c0.4-2.2,1.1-4.2,2.2-6.2h-9.2
							C385.8,1.8,385.2,4,384.9,6.4z M384.2,26c-3.2-1.3-8-2.4-14.4-3.3c-3.6-0.5-6.2-1.1-7.7-1.8c-1.5-0.6-2.6-1.6-3.5-2.8
							c-0.8-1.2-1.2-2.6-1.2-4.2c0-2.3,0.9-4.3,2.7-5.9c1.8-1.6,4.4-2.3,7.8-2.3c3.4,0,6.4,0.7,9,2.2s4.6,3.5,5.8,6.1
							c0.9,2,1.4,4.9,1.4,8.8V26z"/>
					</g>
				</g>
			</g>
			<g id="PathCollection_12">
				<g>
					<g>
						<path id="m0675ef46c5" class="st2" d="M236.4,115.6c0.8,0,1.6-0.3,2.1-0.9c0.6-0.6,0.9-1.3,0.9-2.1s-0.3-1.6-0.9-2.1
							c-0.6-0.6-1.3-0.9-2.1-0.9s-1.6,0.3-2.1,0.9c-0.6,0.6-0.9,1.3-0.9,2.1s0.3,1.6,0.9,2.1C234.9,115.2,235.6,115.6,236.4,115.6z"
							/>
					</g>
				</g>
			</g>
			<g id="text_3">
				<g transform="translate(239.04 113.602187)scale(0.04 -0.04)">
					<g>
						<path id="ArialMT-50" d="M7.7,0v71.6h27c4.8,0,8.4-0.2,10.9-0.7c3.5-0.6,6.5-1.7,8.8-3.4c2.4-1.6,4.3-3.9,5.8-6.9
							c1.4-3,2.2-6.2,2.2-9.8c0-6.1-1.9-11.2-5.8-15.5c-3.9-4.2-10.9-6.3-21-6.3H17.2V0H7.7z M17.2,37.5h18.5c6.1,0,10.5,1.1,13,3.4
							s3.9,5.5,3.9,9.6c0,3-0.8,5.5-2.3,7.7c-1.5,2.1-3.5,3.5-6,4.2c-1.6,0.4-4.6,0.6-8.8,0.6H17.2V37.5z"/>
					</g>
					<g>
						<path id="ArialMT-31" d="M103.9,0h-8.8v56c-2.1-2-4.9-4-8.3-6s-6.5-3.5-9.2-4.5v8.5c4.9,2.3,9.2,5.1,12.9,8.4
							c3.7,3.3,6.3,6.5,7.8,9.6h5.7V0z"/>
					</g>
					<g>
						<path id="ArialMT-2d_00000103254202676206845890000008409316671553907081_" d="M125.5,21.5v8.8h27v-8.8H125.5z"/>
					</g>
					<g>
						<path id="ArialMT-64_00000082358857217962092520000015401523826034548640_" d="M195.8,0v6.5c-3.3-5.1-8.1-7.7-14.5-7.7
							c-4.1,0-7.9,1.1-11.4,3.4s-6.2,5.5-8.1,9.5c-1.9,4.1-2.8,8.8-2.8,14.1c0,5.2,0.9,9.9,2.6,14.1c1.7,4.2,4.3,7.4,7.8,9.7
							c3.5,2.2,7.3,3.4,11.6,3.4c3.1,0,5.9-0.7,8.3-2c2.4-1.3,4.4-3,6-5.1v25.7h8.7V0H195.8z M168.1,25.9c0-6.6,1.4-11.6,4.2-14.9
							c2.8-3.3,6.1-4.9,9.9-4.9c3.8,0,7.1,1.6,9.8,4.7c2.7,3.1,4,7.9,4,14.4c0,7.1-1.4,12.3-4.1,15.6c-2.7,3.3-6.1,5-10.1,5
							c-3.9,0-7.2-1.6-9.8-4.8C169.4,37.8,168.1,32.7,168.1,25.9z"/>
					</g>
					<g>
						<path id="ArialMT-61_00000137128149126384521850000008617297987927699880_" d="M251.7,6.4c-3.3-2.8-6.4-4.7-9.4-5.9
							c-3-1.1-6.2-1.7-9.7-1.7c-5.7,0-10.1,1.4-13.1,4.2s-4.6,6.3-4.6,10.7c0,2.5,0.6,4.9,1.7,7c1.2,2.1,2.7,3.8,4.5,5.1
							s4,2.2,6.3,2.9c1.7,0.5,4.3,0.9,7.8,1.3c7.1,0.8,12.3,1.8,15.7,3c0,1.2,0,2,0,2.3c0,3.6-0.8,6.1-2.5,7.6c-2.2,2-5.6,3-10,3
							c-4.1,0-7.2-0.7-9.2-2.2s-3.4-4-4.4-7.7l-8.6,1.2c0.8,3.7,2.1,6.6,3.9,8.9s4.4,4,7.8,5.2c3.4,1.2,7.3,1.8,11.8,1.8
							c4.4,0,8-0.5,10.8-1.6c2.8-1,4.8-2.4,6.1-3.9c1.3-1.6,2.2-3.6,2.7-6c0.3-1.5,0.4-4.2,0.4-8.1V21.7c0-8.2,0.2-13.3,0.6-15.5
							c0.4-2.2,1.1-4.2,2.2-6.2h-9.2C252.5,1.8,251.9,4,251.7,6.4z M250.9,26c-3.2-1.3-8-2.4-14.4-3.3c-3.6-0.5-6.2-1.1-7.7-1.8
							c-1.5-0.6-2.6-1.6-3.5-2.8c-0.8-1.2-1.2-2.6-1.2-4.2c0-2.3,0.9-4.3,2.7-5.9c1.8-1.6,4.4-2.3,7.8-2.3c3.4,0,6.4,0.7,9,2.2
							s4.6,3.5,5.8,6.1c0.9,2,1.4,4.9,1.4,8.8V26z"/>
					</g>
					<g>
						<path id="ArialMT-79" d="M273-20l-1,8.2c1.9-0.5,3.6-0.8,5-0.8c2,0,3.5,0.3,4.7,1c1.2,0.6,2.1,1.6,2.9,2.7
							c0.6,0.9,1.4,3.1,2.7,6.5c0.2,0.5,0.4,1.2,0.8,2.2l-19.7,52h9.5l10.8-30c1.4-3.8,2.7-7.8,3.8-12c1,4,2.2,8,3.6,11.8l11.1,30.2
							h8.8L296.2-0.9c-2.1-5.7-3.8-9.6-4.9-11.8c-1.6-2.9-3.4-5-5.4-6.4c-2-1.4-4.4-2-7.2-2C277-21,275.1-20.7,273-20z"/>
					</g>
					<g>
						<path id="ArialMT-31_00000022533570947789542200000012077329005735421086_" d="M354.1,0h-8.8v56c-2.1-2-4.9-4-8.3-6
							s-6.5-3.5-9.2-4.5v8.5c4.9,2.3,9.2,5.1,12.9,8.4c3.7,3.3,6.3,6.5,7.8,9.6h5.7V0z"/>
					</g>
					<g>
						<path id="ArialMT-2d_00000083058331673105780120000015701346253368585919_" d="M375.6,21.5v8.8h27v-8.8H375.6z"/>
					</g>
					<g>
						<path id="ArialMT-72" d="M412.3,0v51.9h7.9V44c2,3.7,3.9,6.1,5.6,7.3c1.7,1.2,3.6,1.8,5.6,1.8c3,0,6-0.9,9-2.8l-3-8.2
							c-2.1,1.3-4.3,1.9-6.4,1.9c-1.9,0-3.7-0.6-5.2-1.7s-2.6-2.8-3.3-4.8c-1-3.1-1.5-6.5-1.5-10.2V0H412.3z"/>
					</g>
					<g>
						<path id="ArialMT-65_00000070814808534495035470000006287319149360723860_" d="M481.2,16.7l9.1-1.1c-1.4-5.3-4.1-9.4-8-12.4
							c-3.9-2.9-8.8-4.4-14.8-4.4c-7.6,0-13.6,2.3-18,7c-4.4,4.7-6.7,11.2-6.7,19.7c0,8.7,2.2,15.5,6.7,20.3
							c4.5,4.8,10.3,7.2,17.5,7.2c6.9,0,12.6-2.4,17-7.1s6.6-11.4,6.6-19.9c0-0.5,0-1.3,0-2.3h-38.7c0.3-5.7,1.9-10.1,4.8-13.1
							c2.9-3,6.5-4.5,10.8-4.5c3.2,0,6,0.8,8.2,2.5C478,10.3,479.8,13,481.2,16.7z M452.3,30.9h29c-0.4,4.4-1.5,7.6-3.3,9.8
							c-2.8,3.4-6.4,5.1-10.9,5.1c-4,0-7.4-1.3-10.2-4S452.6,35.4,452.3,30.9z"/>
					</g>
					<g>
						<path id="ArialMT-70" d="M501.3-19.9v71.7h8v-6.7c1.9,2.6,4,4.6,6.4,5.9c2.4,1.3,5.3,2,8.6,2c4.4,0,8.3-1.1,11.7-3.4
							s5.9-5.5,7.7-9.7c1.7-4.1,2.6-8.7,2.6-13.6c0-5.3-1-10.1-2.9-14.3c-1.9-4.2-4.7-7.5-8.3-9.8c-3.6-2.3-7.4-3.4-11.5-3.4
							c-2.9,0-5.6,0.6-7.9,1.9c-2.3,1.2-4.2,2.8-5.7,4.7v-25.2H501.3z M509.2,25.6c0-6.7,1.3-11.6,4-14.8c2.7-3.2,6-4.8,9.8-4.8
							c3.9,0,7.2,1.7,10,5s4.2,8.4,4.2,15.4c0,6.6-1.4,11.5-4.1,14.8c-2.7,3.3-6,4.9-9.7,4.9c-3.8,0-7.1-1.8-10-5.2
							C510.7,37.4,509.2,32.3,509.2,25.6z"/>
					</g>
					<g>
						<path id="ArialMT-31_00000070116925519761940690000005965084724833869735_" d="M587.5,0h-8.8v56c-2.1-2-4.9-4-8.3-6
							s-6.5-3.5-9.2-4.5v8.5c4.9,2.3,9.2,5.1,12.9,8.4c3.7,3.3,6.3,6.5,7.8,9.6h5.7V0z"/>
					</g>
				</g>
			</g>
			<g id="PathCollection_13">
				<g>
					<g>
						<path id="m84a4bc2737" class="st3" d="M236.4,121.3c0.8,0,1.6-0.3,2.1-0.9c0.6-0.6,0.9-1.3,0.9-2.1s-0.3-1.6-0.9-2.1
							c-0.6-0.6-1.3-0.9-2.1-0.9s-1.6,0.3-2.1,0.9c-0.6,0.6-0.9,1.3-0.9,2.1s0.3,1.6,0.9,2.1C234.9,121,235.6,121.3,236.4,121.3z"/>
					</g>
				</g>
			</g>
			<g id="text_4">
				<g transform="translate(239.04 119.319063)scale(0.04 -0.04)">
					<g>
						<path id="ArialMT-50_00000167370068136642084630000004106492811460057220_" d="M7.7,0v71.6h27c4.8,0,8.4-0.2,10.9-0.7
							c3.5-0.6,6.5-1.7,8.8-3.4c2.4-1.6,4.3-3.9,5.8-6.9c1.4-3,2.2-6.2,2.2-9.8c0-6.1-1.9-11.2-5.8-15.5c-3.9-4.2-10.9-6.3-21-6.3
							H17.2V0H7.7z M17.2,37.5h18.5c6.1,0,10.5,1.1,13,3.4s3.9,5.5,3.9,9.6c0,3-0.8,5.5-2.3,7.7c-1.5,2.1-3.5,3.5-6,4.2
							c-1.6,0.4-4.6,0.6-8.8,0.6H17.2V37.5z"/>
					</g>
					<g>
						<path id="ArialMT-31_00000168801663634474415090000007403722117782432164_" d="M103.9,0h-8.8v56c-2.1-2-4.9-4-8.3-6
							s-6.5-3.5-9.2-4.5v8.5c4.9,2.3,9.2,5.1,12.9,8.4c3.7,3.3,6.3,6.5,7.8,9.6h5.7V0z"/>
					</g>
					<g>
						<path id="ArialMT-2d_00000168079389074674730160000009077471471892001699_" d="M125.5,21.5v8.8h27v-8.8H125.5z"/>
					</g>
					<g>
						<path id="ArialMT-64_00000026853342716769059320000001611448832525156255_" d="M195.8,0v6.5c-3.3-5.1-8.1-7.7-14.5-7.7
							c-4.1,0-7.9,1.1-11.4,3.4s-6.2,5.5-8.1,9.5c-1.9,4.1-2.8,8.8-2.8,14.1c0,5.2,0.9,9.9,2.6,14.1c1.7,4.2,4.3,7.4,7.8,9.7
							c3.5,2.2,7.3,3.4,11.6,3.4c3.1,0,5.9-0.7,8.3-2c2.4-1.3,4.4-3,6-5.1v25.7h8.7V0H195.8z M168.1,25.9c0-6.6,1.4-11.6,4.2-14.9
							c2.8-3.3,6.1-4.9,9.9-4.9c3.8,0,7.1,1.6,9.8,4.7c2.7,3.1,4,7.9,4,14.4c0,7.1-1.4,12.3-4.1,15.6c-2.7,3.3-6.1,5-10.1,5
							c-3.9,0-7.2-1.6-9.8-4.8C169.4,37.8,168.1,32.7,168.1,25.9z"/>
					</g>
					<g>
						<path id="ArialMT-61_00000070808321702564493350000011231803626650963343_" d="M251.7,6.4c-3.3-2.8-6.4-4.7-9.4-5.9
							c-3-1.1-6.2-1.7-9.7-1.7c-5.7,0-10.1,1.4-13.1,4.2s-4.6,6.3-4.6,10.7c0,2.5,0.6,4.9,1.7,7c1.2,2.1,2.7,3.8,4.5,5.1
							s4,2.2,6.3,2.9c1.7,0.5,4.3,0.9,7.8,1.3c7.1,0.8,12.3,1.8,15.7,3c0,1.2,0,2,0,2.3c0,3.6-0.8,6.1-2.5,7.6c-2.2,2-5.6,3-10,3
							c-4.1,0-7.2-0.7-9.2-2.2s-3.4-4-4.4-7.7l-8.6,1.2c0.8,3.7,2.1,6.6,3.9,8.9s4.4,4,7.8,5.2c3.4,1.2,7.3,1.8,11.8,1.8
							c4.4,0,8-0.5,10.8-1.6c2.8-1,4.8-2.4,6.1-3.9c1.3-1.6,2.2-3.6,2.7-6c0.3-1.5,0.4-4.2,0.4-8.1V21.7c0-8.2,0.2-13.3,0.6-15.5
							c0.4-2.2,1.1-4.2,2.2-6.2h-9.2C252.5,1.8,251.9,4,251.7,6.4z M250.9,26c-3.2-1.3-8-2.4-14.4-3.3c-3.6-0.5-6.2-1.1-7.7-1.8
							c-1.5-0.6-2.6-1.6-3.5-2.8c-0.8-1.2-1.2-2.6-1.2-4.2c0-2.3,0.9-4.3,2.7-5.9c1.8-1.6,4.4-2.3,7.8-2.3c3.4,0,6.4,0.7,9,2.2
							s4.6,3.5,5.8,6.1c0.9,2,1.4,4.9,1.4,8.8V26z"/>
					</g>
					<g>
						<path id="ArialMT-79_00000178204420702408862770000004853751078265896894_" d="M273-20l-1,8.2c1.9-0.5,3.6-0.8,5-0.8
							c2,0,3.5,0.3,4.7,1c1.2,0.6,2.1,1.6,2.9,2.7c0.6,0.9,1.4,3.1,2.7,6.5c0.2,0.5,0.4,1.2,0.8,2.2l-19.7,52h9.5l10.8-30
							c1.4-3.8,2.7-7.8,3.8-12c1,4,2.2,8,3.6,11.8l11.1,30.2h8.8L296.2-0.9c-2.1-5.7-3.8-9.6-4.9-11.8c-1.6-2.9-3.4-5-5.4-6.4
							c-2-1.4-4.4-2-7.2-2C277-21,275.1-20.7,273-20z"/>
					</g>
					<g>
						<path id="ArialMT-31_00000182489740771219320850000017863440510398548892_" d="M354.1,0h-8.8v56c-2.1-2-4.9-4-8.3-6
							s-6.5-3.5-9.2-4.5v8.5c4.9,2.3,9.2,5.1,12.9,8.4c3.7,3.3,6.3,6.5,7.8,9.6h5.7V0z"/>
					</g>
					<g>
						<path id="ArialMT-2d_00000040566539089225347970000011687258851714355860_" d="M375.6,21.5v8.8h27v-8.8H375.6z"/>
					</g>
					<g>
						<path id="ArialMT-72_00000038382359346238258160000005557954397048674959_" d="M412.3,0v51.9h7.9V44c2,3.7,3.9,6.1,5.6,7.3
							c1.7,1.2,3.6,1.8,5.6,1.8c3,0,6-0.9,9-2.8l-3-8.2c-2.1,1.3-4.3,1.9-6.4,1.9c-1.9,0-3.7-0.6-5.2-1.7s-2.6-2.8-3.3-4.8
							c-1-3.1-1.5-6.5-1.5-10.2V0H412.3z"/>
					</g>
					<g>
						<path id="ArialMT-65_00000081641851296499441220000013947480464955558071_" d="M481.2,16.7l9.1-1.1c-1.4-5.3-4.1-9.4-8-12.4
							c-3.9-2.9-8.8-4.4-14.8-4.4c-7.6,0-13.6,2.3-18,7c-4.4,4.7-6.7,11.2-6.7,19.7c0,8.7,2.2,15.5,6.7,20.3
							c4.5,4.8,10.3,7.2,17.5,7.2c6.9,0,12.6-2.4,17-7.1s6.6-11.4,6.6-19.9c0-0.5,0-1.3,0-2.3h-38.7c0.3-5.7,1.9-10.1,4.8-13.1
							c2.9-3,6.5-4.5,10.8-4.5c3.2,0,6,0.8,8.2,2.5C478,10.3,479.8,13,481.2,16.7z M452.3,30.9h29c-0.4,4.4-1.5,7.6-3.3,9.8
							c-2.8,3.4-6.4,5.1-10.9,5.1c-4,0-7.4-1.3-10.2-4S452.6,35.4,452.3,30.9z"/>
					</g>
					<g>
						<path id="ArialMT-70_00000009562375030068473160000001314835425163718330_" d="M501.3-19.9v71.7h8v-6.7c1.9,2.6,4,4.6,6.4,5.9
							c2.4,1.3,5.3,2,8.6,2c4.4,0,8.3-1.1,11.7-3.4s5.9-5.5,7.7-9.7c1.7-4.1,2.6-8.7,2.6-13.6c0-5.3-1-10.1-2.9-14.3
							c-1.9-4.2-4.7-7.5-8.3-9.8c-3.6-2.3-7.4-3.4-11.5-3.4c-2.9,0-5.6,0.6-7.9,1.9c-2.3,1.2-4.2,2.8-5.7,4.7v-25.2H501.3z
							 M509.2,25.6c0-6.7,1.3-11.6,4-14.8c2.7-3.2,6-4.8,9.8-4.8c3.9,0,7.2,1.7,10,5s4.2,8.4,4.2,15.4c0,6.6-1.4,11.5-4.1,14.8
							c-2.7,3.3-6,4.9-9.7,4.9c-3.8,0-7.1-1.8-10-5.2C510.7,37.4,509.2,32.3,509.2,25.6z"/>
					</g>
					<g>
						<path id="ArialMT-32" d="M600.6,8.5V0h-47.3c-0.1,2.1,0.3,4.2,1,6.1c1.2,3.2,3.1,6.4,5.8,9.5c2.7,3.1,6.5,6.7,11.5,10.8
							c7.8,6.4,13,11.4,15.8,15.2c2.7,3.7,4.1,7.3,4.1,10.6c0,3.5-1.2,6.4-3.8,8.8c-2.5,2.4-5.7,3.6-9.7,3.6
							c-4.2,0-7.6-1.3-10.2-3.8c-2.5-2.5-3.8-6-3.9-10.5l-9,0.9c0.6,6.7,2.9,11.9,7,15.4c4,3.5,9.5,5.3,16.3,5.3
							c6.9,0,12.3-1.9,16.3-5.7c4-3.8,6-8.5,6-14.2c0-2.9-0.6-5.7-1.8-8.5c-1.2-2.8-3.1-5.7-5.8-8.7s-7.2-7.3-13.5-12.6
							c-5.3-4.4-8.7-7.4-10.2-9c-1.5-1.6-2.7-3.2-3.7-4.8H600.6z"/>
					</g>
				</g>
			</g>
			<g id="PathCollection_14">
				<g>
					<g>
						<path id="mea56bde371" class="st4" d="M236.4,127c0.8,0,1.6-0.3,2.1-0.9c0.6-0.6,0.9-1.3,0.9-2.1s-0.3-1.6-0.9-2.1
							c-0.6-0.6-1.3-0.9-2.1-0.9s-1.6,0.3-2.1,0.9c-0.6,0.6-0.9,1.3-0.9,2.1s0.3,1.6,0.9,2.1C234.9,126.7,235.6,127,236.4,127z"/>
					</g>
				</g>
			</g>
			<g id="text_5">
				<g transform="translate(239.04 125.035938)scale(0.04 -0.04)">
					<g>
						<path id="ArialMT-50_00000130607736715063232070000002874886280118067094_" d="M7.7,0v71.6h27c4.8,0,8.4-0.2,10.9-0.7
							c3.5-0.6,6.5-1.7,8.8-3.4c2.4-1.6,4.3-3.9,5.8-6.9c1.4-3,2.2-6.2,2.2-9.8c0-6.1-1.9-11.2-5.8-15.5c-3.9-4.2-10.9-6.3-21-6.3
							H17.2V0H7.7z M17.2,37.5h18.5c6.1,0,10.5,1.1,13,3.4s3.9,5.5,3.9,9.6c0,3-0.8,5.5-2.3,7.7c-1.5,2.1-3.5,3.5-6,4.2
							c-1.6,0.4-4.6,0.6-8.8,0.6H17.2V37.5z"/>
					</g>
					<g>
						<path id="ArialMT-31_00000111181100204002869770000002110172265178167226_" d="M103.9,0h-8.8v56c-2.1-2-4.9-4-8.3-6
							s-6.5-3.5-9.2-4.5v8.5c4.9,2.3,9.2,5.1,12.9,8.4c3.7,3.3,6.3,6.5,7.8,9.6h5.7V0z"/>
					</g>
					<g>
						<path id="ArialMT-2d_00000098202902488399856250000013969451500362478228_" d="M125.5,21.5v8.8h27v-8.8H125.5z"/>
					</g>
					<g>
						<path id="ArialMT-64_00000051365878484413951160000006158705416205830536_" d="M195.8,0v6.5c-3.3-5.1-8.1-7.7-14.5-7.7
							c-4.1,0-7.9,1.1-11.4,3.4s-6.2,5.5-8.1,9.5c-1.9,4.1-2.8,8.8-2.8,14.1c0,5.2,0.9,9.9,2.6,14.1c1.7,4.2,4.3,7.4,7.8,9.7
							c3.5,2.2,7.3,3.4,11.6,3.4c3.1,0,5.9-0.7,8.3-2c2.4-1.3,4.4-3,6-5.1v25.7h8.7V0H195.8z M168.1,25.9c0-6.6,1.4-11.6,4.2-14.9
							c2.8-3.3,6.1-4.9,9.9-4.9c3.8,0,7.1,1.6,9.8,4.7c2.7,3.1,4,7.9,4,14.4c0,7.1-1.4,12.3-4.1,15.6c-2.7,3.3-6.1,5-10.1,5
							c-3.9,0-7.2-1.6-9.8-4.8C169.4,37.8,168.1,32.7,168.1,25.9z"/>
					</g>
					<g>
						<path id="ArialMT-61_00000002344078096833252620000010076445521686018744_" d="M251.7,6.4c-3.3-2.8-6.4-4.7-9.4-5.9
							c-3-1.1-6.2-1.7-9.7-1.7c-5.7,0-10.1,1.4-13.1,4.2s-4.6,6.3-4.6,10.7c0,2.5,0.6,4.9,1.7,7c1.2,2.1,2.7,3.8,4.5,5.1
							s4,2.2,6.3,2.9c1.7,0.5,4.3,0.9,7.8,1.3c7.1,0.8,12.3,1.8,15.7,3c0,1.2,0,2,0,2.3c0,3.6-0.8,6.1-2.5,7.6c-2.2,2-5.6,3-10,3
							c-4.1,0-7.2-0.7-9.2-2.2s-3.4-4-4.4-7.7l-8.6,1.2c0.8,3.7,2.1,6.6,3.9,8.9s4.4,4,7.8,5.2c3.4,1.2,7.3,1.8,11.8,1.8
							c4.4,0,8-0.5,10.8-1.6c2.8-1,4.8-2.4,6.1-3.9c1.3-1.6,2.2-3.6,2.7-6c0.3-1.5,0.4-4.2,0.4-8.1V21.7c0-8.2,0.2-13.3,0.6-15.5
							c0.4-2.2,1.1-4.2,2.2-6.2h-9.2C252.5,1.8,251.9,4,251.7,6.4z M250.9,26c-3.2-1.3-8-2.4-14.4-3.3c-3.6-0.5-6.2-1.1-7.7-1.8
							c-1.5-0.6-2.6-1.6-3.5-2.8c-0.8-1.2-1.2-2.6-1.2-4.2c0-2.3,0.9-4.3,2.7-5.9c1.8-1.6,4.4-2.3,7.8-2.3c3.4,0,6.4,0.7,9,2.2
							s4.6,3.5,5.8,6.1c0.9,2,1.4,4.9,1.4,8.8V26z"/>
					</g>
					<g>
						<path id="ArialMT-79_00000183959951298736333990000000019322963404751547_" d="M273-20l-1,8.3c1.9-0.5,3.6-0.8,5-0.8
							c2,0,3.5,0.3,4.7,1c1.2,0.6,2.1,1.6,2.9,2.7c0.6,0.9,1.4,3.1,2.7,6.5c0.2,0.5,0.4,1.2,0.8,2.2l-19.7,52h9.5l10.8-30
							c1.4-3.8,2.7-7.8,3.8-12c1,4,2.2,8,3.6,11.8l11.1,30.2h8.8L296.2-0.9c-2.1-5.7-3.8-9.6-4.9-11.8c-1.6-2.9-3.4-5-5.4-6.4
							c-2-1.4-4.4-2-7.2-2C277-21,275.1-20.7,273-20z"/>
					</g>
					<g>
						<path id="ArialMT-35" d="M321,18.7l9.2,0.8c0.7-4.5,2.3-7.9,4.8-10.1c2.5-2.3,5.5-3.4,9-3.4c4.2,0,7.8,1.6,10.7,4.8
							c2.9,3.2,4.4,7.4,4.4,12.7c0,5-1.4,9-4.2,11.9c-2.8,2.9-6.5,4.4-11.1,4.4c-2.8,0-5.4-0.6-7.7-1.9c-2.3-1.3-4.1-2.9-5.4-5
							l-8.2,1.1l6.9,36.8h35.6v-8.4h-28.6L332.7,43c4.3,3,8.8,4.5,13.5,4.5c6.2,0,11.5-2.2,15.8-6.5c4.3-4.3,6.5-9.9,6.5-16.7
							c0-6.5-1.9-12.1-5.7-16.8c-4.6-5.8-10.9-8.7-18.8-8.7c-6.5,0-11.8,1.8-16,5.5C323.9,7.9,321.6,12.7,321,18.7z"/>
					</g>
					<g>
						<path id="ArialMT-2d_00000170247238419630836110000018378240068826341538_" d="M375.6,21.5v8.8h27v-8.8H375.6z"/>
					</g>
					<g>
						<path id="ArialMT-72_00000077316635153755564880000002491547393652187035_" d="M412.3,0v51.9h7.9V44c2,3.7,3.9,6.1,5.6,7.3
							c1.7,1.2,3.6,1.8,5.6,1.8c3,0,6-0.9,9-2.8l-3-8.2c-2.1,1.3-4.3,1.9-6.4,1.9c-1.9,0-3.7-0.6-5.2-1.7s-2.6-2.8-3.3-4.8
							c-1-3.1-1.5-6.5-1.5-10.2V0H412.3z"/>
					</g>
					<g>
						<path id="ArialMT-65_00000076574037115811769920000014049287234328643732_" d="M481.2,16.7l9.1-1.1c-1.4-5.3-4.1-9.4-8-12.4
							c-3.9-2.9-8.8-4.4-14.8-4.4c-7.6,0-13.6,2.3-18,7c-4.4,4.7-6.7,11.2-6.7,19.7c0,8.7,2.2,15.5,6.7,20.3
							c4.5,4.8,10.3,7.2,17.5,7.2c6.9,0,12.6-2.4,17-7.1s6.6-11.4,6.6-19.9c0-0.5,0-1.3,0-2.3h-38.7c0.3-5.7,1.9-10.1,4.8-13.1
							c2.9-3,6.5-4.5,10.8-4.5c3.2,0,6,0.8,8.2,2.5C478,10.3,479.8,13,481.2,16.7z M452.3,30.9h29c-0.4,4.4-1.5,7.6-3.3,9.8
							c-2.8,3.4-6.4,5.1-10.9,5.1c-4,0-7.4-1.3-10.2-4S452.6,35.4,452.3,30.9z"/>
					</g>
					<g>
						<path id="ArialMT-70_00000086683837915717644690000000694621578599967891_" d="M501.3-19.9v71.7h8v-6.7c1.9,2.6,4,4.6,6.4,5.9
							c2.4,1.3,5.3,2,8.6,2c4.4,0,8.3-1.1,11.7-3.4s5.9-5.5,7.7-9.7c1.7-4.1,2.6-8.7,2.6-13.6c0-5.3-1-10.1-2.9-14.3
							c-1.9-4.2-4.7-7.5-8.3-9.8c-3.6-2.3-7.4-3.4-11.5-3.4c-2.9,0-5.6,0.6-7.9,1.9c-2.3,1.2-4.2,2.8-5.7,4.7v-25.2H501.3z
							 M509.2,25.6c0-6.7,1.3-11.6,4-14.8c2.7-3.2,6-4.8,9.8-4.8c3.9,0,7.2,1.7,10,5s4.2,8.4,4.2,15.4c0,6.6-1.4,11.5-4.1,14.8
							c-2.7,3.3-6,4.9-9.7,4.9c-3.8,0-7.1-1.8-10-5.2C510.7,37.4,509.2,32.3,509.2,25.6z"/>
					</g>
					<g>
						<path id="ArialMT-31_00000023269531304870262740000001088918049779876764_" d="M587.5,0h-8.8v56c-2.1-2-4.9-4-8.3-6
							s-6.5-3.5-9.2-4.5v8.5c4.9,2.3,9.2,5.1,12.9,8.4c3.7,3.3,6.3,6.5,7.8,9.6h5.7V0z"/>
					</g>
				</g>
			</g>
			<g id="PathCollection_15">
				<g>
					<g>
						<path id="mffeb70c4a6" class="st5" d="M236.4,132.7c0.8,0,1.6-0.3,2.1-0.9c0.6-0.6,0.9-1.3,0.9-2.1c0-0.8-0.3-1.6-0.9-2.1
							c-0.6-0.6-1.3-0.9-2.1-0.9s-1.6,0.3-2.1,0.9c-0.6,0.6-0.9,1.3-0.9,2.1c0,0.8,0.3,1.6,0.9,2.1
							C234.9,132.4,235.6,132.7,236.4,132.7z"/>
					</g>
				</g>
			</g>
			<g id="text_6">
				<g transform="translate(239.04 130.752813)scale(0.04 -0.04)">
					<g>
						<path id="ArialMT-50_00000096055807137882061950000007752801274847299733_" d="M7.7,0v71.6h27c4.8,0,8.4-0.2,10.9-0.7
							c3.5-0.6,6.5-1.7,8.8-3.4c2.4-1.6,4.3-3.9,5.8-6.9c1.4-3,2.2-6.2,2.2-9.8c0-6.1-1.9-11.2-5.8-15.5c-3.9-4.2-10.9-6.3-21-6.3
							H17.2V0H7.7z M17.2,37.5h18.5c6.1,0,10.5,1.1,13,3.4s3.9,5.5,3.9,9.6c0,3-0.8,5.5-2.3,7.7c-1.5,2.1-3.5,3.5-6,4.2
							c-1.6,0.4-4.6,0.6-8.8,0.6H17.2V37.5z"/>
					</g>
					<g>
						<path id="ArialMT-31_00000011018097194071820240000008304992243097210005_" d="M103.9,0h-8.8v56c-2.1-2-4.9-4-8.3-6
							s-6.5-3.5-9.2-4.5v8.5c4.9,2.3,9.2,5.1,12.9,8.4c3.7,3.3,6.3,6.5,7.8,9.6h5.7V0z"/>
					</g>
					<g>
						<path id="ArialMT-2d_00000016036665345890737770000007945175866375012791_" d="M125.5,21.5v8.8h27v-8.8H125.5z"/>
					</g>
					<g>
						<path id="ArialMT-64_00000092432582578647119940000000322936023860291760_" d="M195.8,0v6.5c-3.3-5.1-8.1-7.7-14.5-7.7
							c-4.1,0-7.9,1.1-11.4,3.4s-6.2,5.5-8.1,9.5c-1.9,4.1-2.8,8.8-2.8,14.1c0,5.2,0.9,9.9,2.6,14.1c1.7,4.2,4.3,7.4,7.8,9.7
							c3.5,2.2,7.3,3.4,11.6,3.4c3.1,0,5.9-0.7,8.3-2c2.4-1.3,4.4-3,6-5.1v25.7h8.7V0H195.8z M168.1,25.9c0-6.6,1.4-11.6,4.2-14.9
							c2.8-3.3,6.1-4.9,9.9-4.9c3.8,0,7.1,1.6,9.8,4.7c2.7,3.1,4,7.9,4,14.4c0,7.1-1.4,12.3-4.1,15.6c-2.7,3.3-6.1,5-10.1,5
							c-3.9,0-7.2-1.6-9.8-4.8C169.4,37.8,168.1,32.7,168.1,25.9z"/>
					</g>
					<g>
						<path id="ArialMT-61_00000013892627560568536740000010625494694845920437_" d="M251.7,6.4c-3.3-2.8-6.4-4.7-9.4-5.9
							c-3-1.1-6.2-1.7-9.7-1.7c-5.7,0-10.1,1.4-13.1,4.2s-4.6,6.3-4.6,10.7c0,2.5,0.6,4.9,1.7,7c1.2,2.1,2.7,3.8,4.5,5.1
							s4,2.2,6.3,2.9c1.7,0.5,4.3,0.9,7.8,1.3c7.1,0.8,12.3,1.8,15.7,3c0,1.2,0,2,0,2.3c0,3.6-0.8,6.1-2.5,7.6c-2.2,2-5.6,3-10,3
							c-4.1,0-7.2-0.7-9.2-2.2s-3.4-4-4.4-7.7l-8.6,1.2c0.8,3.7,2.1,6.6,3.9,8.9s4.4,4,7.8,5.2c3.4,1.2,7.3,1.8,11.8,1.8
							c4.4,0,8-0.5,10.8-1.6c2.8-1,4.8-2.4,6.1-3.9c1.3-1.6,2.2-3.6,2.7-6c0.3-1.5,0.4-4.2,0.4-8.1V21.7c0-8.2,0.2-13.3,0.6-15.5
							c0.4-2.2,1.1-4.2,2.2-6.2h-9.2C252.5,1.8,251.9,4,251.7,6.4z M250.9,26c-3.2-1.3-8-2.4-14.4-3.3c-3.6-0.5-6.2-1.1-7.7-1.8
							c-1.5-0.6-2.6-1.6-3.5-2.8c-0.8-1.2-1.2-2.6-1.2-4.2c0-2.3,0.9-4.3,2.7-5.9c1.8-1.6,4.4-2.3,7.8-2.3c3.4,0,6.4,0.7,9,2.2
							s4.6,3.5,5.8,6.1c0.9,2,1.4,4.9,1.4,8.8V26z"/>
					</g>
					<g>
						<path id="ArialMT-79_00000093151100828606424020000008122395489440047010_" d="M273-20l-1,8.2c1.9-0.5,3.6-0.8,5-0.8
							c2,0,3.5,0.3,4.7,1c1.2,0.6,2.1,1.6,2.9,2.7c0.6,0.9,1.4,3.1,2.7,6.5c0.2,0.5,0.4,1.2,0.8,2.2l-19.7,52h9.5l10.8-30
							c1.4-3.8,2.7-7.8,3.8-12c1,4,2.2,8,3.6,11.8l11.1,30.2h8.8L296.2-0.9c-2.1-5.7-3.8-9.6-4.9-11.8c-1.6-2.9-3.4-5-5.4-6.4
							c-2-1.4-4.4-2-7.2-2C277-21,275.1-20.7,273-20z"/>
					</g>
					<g>
						<path id="ArialMT-35_00000036949051981604242110000013961503619260521126_" d="M321,18.7l9.2,0.8c0.7-4.5,2.3-7.9,4.8-10.1
							c2.5-2.3,5.5-3.4,9-3.4c4.2,0,7.8,1.6,10.7,4.8c2.9,3.2,4.4,7.4,4.4,12.7c0,5-1.4,9-4.2,11.9c-2.8,2.9-6.5,4.4-11.1,4.4
							c-2.8,0-5.4-0.6-7.7-1.9c-2.3-1.3-4.1-2.9-5.4-5l-8.2,1.1l6.9,36.8h35.6v-8.4h-28.6L332.7,43c4.3,3,8.8,4.5,13.5,4.5
							c6.2,0,11.5-2.2,15.8-6.5c4.3-4.3,6.5-9.9,6.5-16.7c0-6.5-1.9-12.1-5.7-16.8c-4.6-5.8-10.9-8.7-18.8-8.7
							c-6.5,0-11.8,1.8-16,5.5C323.9,7.9,321.6,12.7,321,18.7z"/>
					</g>
					<g>
						<path id="ArialMT-2d_00000057128834047874726410000008169758752093958836_" d="M375.6,21.5v8.8h27v-8.8H375.6z"/>
					</g>
					<g>
						<path id="ArialMT-72_00000156588740422183786590000001676320575768620684_" d="M412.3,0v51.9h7.9V44c2,3.7,3.9,6.1,5.6,7.3
							c1.7,1.2,3.6,1.8,5.6,1.8c3,0,6-0.9,9-2.8l-3-8.2c-2.1,1.3-4.3,1.9-6.4,1.9c-1.9,0-3.7-0.6-5.2-1.7s-2.6-2.8-3.3-4.8
							c-1-3.1-1.5-6.5-1.5-10.2V0H412.3z"/>
					</g>
					<g>
						<path id="ArialMT-65_00000050647929453018780980000005078458067563703958_" d="M481.2,16.7l9.1-1.1c-1.4-5.3-4.1-9.4-8-12.4
							c-3.9-2.9-8.8-4.4-14.8-4.4c-7.6,0-13.6,2.3-18,7c-4.4,4.7-6.7,11.2-6.7,19.7c0,8.7,2.2,15.5,6.7,20.3
							c4.5,4.8,10.3,7.2,17.5,7.2c6.9,0,12.6-2.4,17-7.1s6.6-11.4,6.6-19.9c0-0.5,0-1.3,0-2.3h-38.7c0.3-5.7,1.9-10.1,4.8-13.1
							c2.9-3,6.5-4.5,10.8-4.5c3.2,0,6,0.8,8.2,2.5C478,10.3,479.8,13,481.2,16.7z M452.3,30.9h29c-0.4,4.4-1.5,7.6-3.3,9.8
							c-2.8,3.4-6.4,5.1-10.9,5.1c-4,0-7.4-1.3-10.2-4S452.6,35.4,452.3,30.9z"/>
					</g>
					<g>
						<path id="ArialMT-70_00000055672646926666505070000017400510355884839051_" d="M501.3-19.9v71.7h8v-6.7c1.9,2.6,4,4.6,6.4,5.9
							c2.4,1.3,5.3,2,8.6,2c4.4,0,8.3-1.1,11.7-3.4s5.9-5.5,7.7-9.7c1.7-4.1,2.6-8.7,2.6-13.6c0-5.3-1-10.1-2.9-14.3
							c-1.9-4.2-4.7-7.5-8.3-9.8c-3.6-2.3-7.4-3.4-11.5-3.4c-2.9,0-5.6,0.6-7.9,1.9c-2.3,1.2-4.2,2.8-5.7,4.7v-25.2H501.3z
							 M509.2,25.6c0-6.7,1.3-11.6,4-14.8c2.7-3.2,6-4.8,9.8-4.8c3.9,0,7.2,1.7,10,5s4.2,8.4,4.2,15.4c0,6.6-1.4,11.5-4.1,14.8
							c-2.7,3.3-6,4.9-9.7,4.9c-3.8,0-7.1-1.8-10-5.2C510.7,37.4,509.2,32.3,509.2,25.6z"/>
					</g>
					<g>
						<path id="ArialMT-32_00000033352070225952680700000016069056596002150798_" d="M600.6,8.5V0h-47.3c-0.1,2.1,0.3,4.2,1,6.1
							c1.2,3.2,3.1,6.4,5.8,9.5c2.7,3.1,6.5,6.7,11.5,10.8c7.8,6.4,13,11.4,15.8,15.2c2.7,3.7,4.1,7.3,4.1,10.6
							c0,3.5-1.2,6.4-3.8,8.8c-2.5,2.4-5.7,3.6-9.7,3.6c-4.2,0-7.6-1.3-10.2-3.8c-2.5-2.5-3.8-6-3.9-10.5l-9,0.9
							c0.6,6.7,2.9,11.9,7,15.4c4,3.5,9.5,5.3,16.3,5.3c6.9,0,12.3-1.9,16.3-5.7c4-3.8,6-8.5,6-14.2c0-2.9-0.6-5.7-1.8-8.5
							c-1.2-2.8-3.1-5.7-5.8-8.7s-7.2-7.3-13.5-12.6c-5.3-4.4-8.7-7.4-10.2-9c-1.5-1.6-2.7-3.2-3.7-4.8H600.6z"/>
					</g>
				</g>
			</g>
			<g id="PathCollection_16">
				<g>
					<g>
						<path id="mf8468ff185" class="st6" d="M236.4,138.4c0.8,0,1.6-0.3,2.1-0.9c0.6-0.6,0.9-1.3,0.9-2.1c0-0.8-0.3-1.6-0.9-2.1
							c-0.6-0.6-1.3-0.9-2.1-0.9s-1.6,0.3-2.1,0.9c-0.6,0.6-0.9,1.3-0.9,2.1c0,0.8,0.3,1.6,0.9,2.1
							C234.9,138.1,235.6,138.4,236.4,138.4z"/>
					</g>
				</g>
			</g>
			<g id="text_7">
				<g transform="translate(239.04 136.469688)scale(0.04 -0.04)">
					<g>
						<path id="ArialMT-50_00000123414553215056124200000012187350159882811539_" d="M7.7,0v71.6h27c4.8,0,8.4-0.2,10.9-0.7
							c3.5-0.6,6.5-1.7,8.8-3.4c2.4-1.6,4.3-3.9,5.8-6.9c1.4-3,2.2-6.2,2.2-9.8c0-6.1-1.9-11.2-5.8-15.5c-3.9-4.2-10.9-6.3-21-6.3
							H17.2V0H7.7z M17.2,37.5h18.5c6.1,0,10.5,1.1,13,3.4s3.9,5.5,3.9,9.6c0,3-0.8,5.5-2.3,7.7c-1.5,2.1-3.5,3.5-6,4.2
							c-1.6,0.4-4.6,0.6-8.8,0.6H17.2V37.5z"/>
					</g>
					<g>
						<path id="ArialMT-32_00000168837144163574586710000001071258135286504078_" d="M117,8.5V0H69.7c-0.1,2.1,0.3,4.2,1,6.1
							c1.2,3.2,3.1,6.4,5.8,9.5c2.7,3.1,6.5,6.7,11.5,10.8c7.8,6.4,13,11.4,15.8,15.2c2.7,3.7,4.1,7.3,4.1,10.6
							c0,3.5-1.2,6.4-3.8,8.8c-2.5,2.4-5.7,3.6-9.7,3.6c-4.2,0-7.6-1.3-10.2-3.8c-2.5-2.5-3.8-6-3.9-10.5l-9,0.9
							c0.6,6.7,2.9,11.9,7,15.4c4,3.5,9.5,5.3,16.3,5.3c6.9,0,12.3-1.9,16.3-5.7c4-3.8,6-8.5,6-14.2c0-2.9-0.6-5.7-1.8-8.5
							c-1.2-2.8-3.1-5.7-5.8-8.7s-7.2-7.3-13.5-12.6c-5.3-4.4-8.7-7.4-10.2-9c-1.5-1.6-2.7-3.2-3.7-4.8H117z"/>
					</g>
					<g>
						<path id="ArialMT-2d_00000139268803441420698580000016895629596282655886_" d="M125.5,21.5v8.8h27v-8.8H125.5z"/>
					</g>
					<g>
						<path id="ArialMT-64_00000135655288654033622740000001961571494549183372_" d="M195.8,0v6.5c-3.3-5.1-8.1-7.7-14.5-7.7
							c-4.1,0-7.9,1.1-11.4,3.4s-6.2,5.5-8.1,9.5c-1.9,4.1-2.8,8.8-2.8,14.1c0,5.2,0.9,9.9,2.6,14.1c1.7,4.2,4.3,7.4,7.8,9.7
							c3.5,2.2,7.3,3.4,11.6,3.4c3.1,0,5.9-0.7,8.3-2c2.4-1.3,4.4-3,6-5.1v25.7h8.7V0H195.8z M168.1,25.9c0-6.6,1.4-11.6,4.2-14.9
							c2.8-3.3,6.1-4.9,9.9-4.9c3.8,0,7.1,1.6,9.8,4.7c2.7,3.1,4,7.9,4,14.4c0,7.1-1.4,12.3-4.1,15.6c-2.7,3.3-6.1,5-10.1,5
							c-3.9,0-7.2-1.6-9.8-4.8C169.4,37.8,168.1,32.7,168.1,25.9z"/>
					</g>
					<g>
						<path id="ArialMT-61_00000092442331609197370620000012820873414675683515_" d="M251.7,6.4c-3.3-2.8-6.4-4.7-9.4-5.9
							c-3-1.1-6.2-1.7-9.7-1.7c-5.7,0-10.1,1.4-13.1,4.2s-4.6,6.3-4.6,10.7c0,2.5,0.6,4.9,1.7,7c1.2,2.1,2.7,3.8,4.5,5.1
							c1.9,1.3,4,2.2,6.3,2.9c1.7,0.5,4.3,0.9,7.8,1.3c7.1,0.8,12.3,1.8,15.7,3c0,1.2,0,2,0,2.3c0,3.6-0.8,6.1-2.5,7.6
							c-2.2,2-5.6,3-10,3c-4.1,0-7.2-0.7-9.2-2.2s-3.4-4-4.4-7.7l-8.6,1.2c0.8,3.7,2.1,6.6,3.9,8.9s4.4,4,7.8,5.2
							c3.4,1.2,7.3,1.8,11.8,1.8c4.4,0,8-0.5,10.8-1.6c2.8-1,4.8-2.4,6.1-3.9c1.3-1.6,2.2-3.6,2.7-6c0.3-1.5,0.4-4.2,0.4-8.1V21.7
							c0-8.2,0.2-13.3,0.6-15.5c0.4-2.2,1.1-4.2,2.2-6.2h-9.2C252.5,1.8,251.9,4,251.7,6.4z M250.9,26c-3.2-1.3-8-2.4-14.4-3.3
							c-3.6-0.5-6.2-1.1-7.7-1.8c-1.5-0.6-2.6-1.6-3.5-2.8c-0.8-1.2-1.2-2.6-1.2-4.2c0-2.3,0.9-4.3,2.7-5.9c1.8-1.6,4.4-2.3,7.8-2.3
							c3.4,0,6.4,0.7,9,2.2s4.6,3.5,5.8,6.1c0.9,2,1.4,4.9,1.4,8.8V26z"/>
					</g>
					<g>
						<path id="ArialMT-79_00000149351987149827930520000000763546948820387514_" d="M273-20l-1,8.2c1.9-0.5,3.6-0.8,5-0.8
							c2,0,3.5,0.3,4.7,1c1.2,0.6,2.1,1.6,2.9,2.7c0.6,0.9,1.4,3.1,2.7,6.5c0.2,0.5,0.4,1.2,0.8,2.2l-19.7,52h9.5l10.8-30
							c1.4-3.8,2.7-7.8,3.8-12c1,4,2.2,8,3.6,11.8l11.1,30.2h8.8L296.2-0.9c-2.1-5.7-3.8-9.6-4.9-11.8c-1.6-2.9-3.4-5-5.4-6.4
							c-2-1.4-4.4-2-7.2-2C277-21,275.1-20.7,273-20z"/>
					</g>
					<g>
						<path id="ArialMT-31_00000098184651472597728070000011099537463605731490_" d="M354.1,0h-8.8v56c-2.1-2-4.9-4-8.3-6
							s-6.5-3.5-9.2-4.5v8.5c4.9,2.3,9.2,5.1,12.9,8.4c3.7,3.3,6.3,6.5,7.8,9.6h5.7V0z"/>
					</g>
				</g>
			</g>
			<g id="PathCollection_17">
				<g>
					<g>
						<path id="m53c4b46303" class="st7" d="M236.4,144.1c0.8,0,1.6-0.3,2.1-0.9c0.6-0.6,0.9-1.3,0.9-2.1c0-0.8-0.3-1.6-0.9-2.1
							c-0.6-0.6-1.3-0.9-2.1-0.9s-1.6,0.3-2.1,0.9c-0.6,0.6-0.9,1.3-0.9,2.1c0,0.8,0.3,1.6,0.9,2.1
							C234.9,143.8,235.6,144.1,236.4,144.1z"/>
					</g>
				</g>
			</g>
			<g id="text_8">
				<g transform="translate(239.04 142.186563)scale(0.04 -0.04)">
					<g>
						<path id="ArialMT-50_00000023280044005078073960000014772470915187461504_" d="M7.7,0v71.6h27c4.8,0,8.4-0.2,10.9-0.7
							c3.5-0.6,6.5-1.7,8.8-3.4c2.4-1.6,4.3-3.9,5.8-6.9c1.4-3,2.2-6.2,2.2-9.8c0-6.1-1.9-11.2-5.8-15.5c-3.9-4.2-10.9-6.3-21-6.3
							H17.2V0H7.7z M17.2,37.5h18.5c6.1,0,10.5,1.1,13,3.4s3.9,5.5,3.9,9.6c0,3-0.8,5.5-2.3,7.7c-1.5,2.1-3.5,3.5-6,4.2
							c-1.6,0.4-4.6,0.6-8.8,0.6H17.2V37.5z"/>
					</g>
					<g>
						<path id="ArialMT-32_00000166659169418086020420000005181774313787326621_" d="M117,8.5V0H69.7c-0.1,2.1,0.3,4.2,1,6.1
							c1.2,3.2,3.1,6.4,5.8,9.5c2.7,3.1,6.5,6.7,11.5,10.8c7.8,6.4,13,11.4,15.8,15.2c2.7,3.7,4.1,7.3,4.1,10.6
							c0,3.5-1.2,6.4-3.8,8.8c-2.5,2.4-5.7,3.6-9.7,3.6c-4.2,0-7.6-1.3-10.2-3.8c-2.5-2.5-3.8-6-3.9-10.5l-9,0.9
							c0.6,6.7,2.9,11.9,7,15.4c4,3.5,9.5,5.3,16.3,5.3c6.9,0,12.3-1.9,16.3-5.7c4-3.8,6-8.5,6-14.2c0-2.9-0.6-5.7-1.8-8.5
							c-1.2-2.8-3.1-5.7-5.8-8.7s-7.2-7.3-13.5-12.6c-5.3-4.4-8.7-7.4-10.2-9c-1.5-1.6-2.7-3.2-3.7-4.8H117z"/>
					</g>
					<g>
						<path id="ArialMT-2d_00000177461737452117244650000008800069164020832394_" d="M125.5,21.5v8.8h27v-8.8H125.5z"/>
					</g>
					<g>
						<path id="ArialMT-64_00000104673771020228810130000006348918690040723626_" d="M195.8,0v6.5c-3.3-5.1-8.1-7.7-14.5-7.7
							c-4.1,0-7.9,1.1-11.4,3.4s-6.2,5.5-8.1,9.5c-1.9,4.1-2.8,8.8-2.8,14.1c0,5.2,0.9,9.9,2.6,14.1c1.7,4.2,4.3,7.4,7.8,9.7
							c3.5,2.2,7.3,3.4,11.6,3.4c3.1,0,5.9-0.7,8.3-2c2.4-1.3,4.4-3,6-5.1v25.7h8.7V0H195.8z M168.1,25.9c0-6.6,1.4-11.6,4.2-14.9
							c2.8-3.3,6.1-4.9,9.9-4.9c3.8,0,7.1,1.6,9.8,4.7c2.7,3.1,4,7.9,4,14.4c0,7.1-1.4,12.3-4.1,15.6c-2.7,3.3-6.1,5-10.1,5
							c-3.9,0-7.2-1.6-9.8-4.8C169.4,37.8,168.1,32.7,168.1,25.9z"/>
					</g>
					<g>
						<path id="ArialMT-61_00000072270122738392159760000000130597776698751401_" d="M251.7,6.4c-3.3-2.8-6.4-4.7-9.4-5.9
							c-3-1.1-6.2-1.7-9.7-1.7c-5.7,0-10.1,1.4-13.1,4.2s-4.6,6.3-4.6,10.7c0,2.5,0.6,4.9,1.7,7c1.2,2.1,2.7,3.8,4.5,5.1
							s4,2.2,6.3,2.9c1.7,0.5,4.3,0.9,7.8,1.3c7.1,0.8,12.3,1.8,15.7,3c0,1.2,0,2,0,2.3c0,3.6-0.8,6.1-2.5,7.6c-2.2,2-5.6,3-10,3
							c-4.1,0-7.2-0.7-9.2-2.2s-3.4-4-4.4-7.7l-8.6,1.2c0.8,3.7,2.1,6.6,3.9,8.9s4.4,4,7.8,5.2c3.4,1.2,7.3,1.8,11.8,1.8
							c4.4,0,8-0.5,10.8-1.6c2.8-1,4.8-2.4,6.1-3.9c1.3-1.6,2.2-3.6,2.7-6c0.3-1.5,0.4-4.2,0.4-8.1V21.7c0-8.2,0.2-13.3,0.6-15.5
							c0.4-2.2,1.1-4.2,2.2-6.2h-9.2C252.5,1.8,251.9,4,251.7,6.4z M250.9,26c-3.2-1.3-8-2.4-14.4-3.3c-3.6-0.5-6.2-1.1-7.7-1.8
							c-1.5-0.6-2.6-1.6-3.5-2.8c-0.8-1.2-1.2-2.6-1.2-4.2c0-2.3,0.9-4.3,2.7-5.9c1.8-1.6,4.4-2.3,7.8-2.3c3.4,0,6.4,0.7,9,2.2
							s4.6,3.5,5.8,6.1c0.9,2,1.4,4.9,1.4,8.8V26z"/>
					</g>
					<g>
						<path id="ArialMT-79_00000020399354537438635070000006862519171354724494_" d="M273-20l-1,8.3c1.9-0.5,3.6-0.8,5-0.8
							c2,0,3.5,0.3,4.7,1c1.2,0.6,2.1,1.6,2.9,2.7c0.6,0.9,1.4,3.1,2.7,6.5c0.2,0.5,0.4,1.2,0.8,2.2l-19.7,52h9.5l10.8-30
							c1.4-3.8,2.7-7.8,3.8-12c1,4,2.2,8,3.6,11.8l11.1,30.2h8.8L296.2-0.9c-2.1-5.7-3.8-9.6-4.9-11.8c-1.6-2.9-3.4-5-5.4-6.4
							c-2-1.4-4.4-2-7.2-2C277-21,275.1-20.7,273-20z"/>
					</g>
					<g>
						<path id="ArialMT-35_00000039096954583778094830000002140955601894879876_" d="M321,18.7l9.2,0.8c0.7-4.5,2.3-7.9,4.8-10.1
							c2.5-2.3,5.5-3.4,9-3.4c4.2,0,7.8,1.6,10.7,4.8c2.9,3.2,4.4,7.4,4.4,12.7c0,5-1.4,9-4.2,11.9c-2.8,2.9-6.5,4.4-11.1,4.4
							c-2.8,0-5.4-0.6-7.7-1.9c-2.3-1.3-4.1-2.9-5.4-5l-8.2,1.1l6.9,36.8h35.6v-8.4h-28.6L332.7,43c4.3,3,8.8,4.5,13.5,4.5
							c6.2,0,11.5-2.2,15.8-6.5c4.3-4.3,6.5-9.9,6.5-16.7c0-6.5-1.9-12.1-5.7-16.8c-4.6-5.8-10.9-8.7-18.8-8.7
							c-6.5,0-11.8,1.8-16,5.5C323.9,7.9,321.6,12.7,321,18.7z"/>
					</g>
				</g>
			</g>
			<g id="PathCollection_18">
				<g>
					<g>
						<path id="ma15e82dc72" class="st8" d="M236.4,149.9c0.8,0,1.6-0.3,2.1-0.9c0.6-0.6,0.9-1.3,0.9-2.1c0-0.8-0.3-1.6-0.9-2.1
							c-0.6-0.6-1.3-0.9-2.1-0.9s-1.6,0.3-2.1,0.9c-0.6,0.6-0.9,1.3-0.9,2.1c0,0.8,0.3,1.6,0.9,2.1
							C234.9,149.5,235.6,149.9,236.4,149.9z"/>
					</g>
				</g>
			</g>
			<g id="text_9">
				<g transform="translate(239.04 147.903437)scale(0.04 -0.04)">
					<g>
						<path id="ArialMT-50_00000159465216839434086840000017185785722977866141_" d="M7.7,0v71.6h27c4.8,0,8.4-0.2,10.9-0.7
							c3.5-0.6,6.5-1.7,8.8-3.4c2.4-1.6,4.3-3.9,5.8-6.9c1.4-3,2.2-6.2,2.2-9.8c0-6.1-1.9-11.2-5.8-15.5c-3.9-4.2-10.9-6.3-21-6.3
							H17.2V0H7.7z M17.2,37.5h18.5c6.1,0,10.5,1.1,13,3.4s3.9,5.5,3.9,9.6c0,3-0.8,5.5-2.3,7.7c-1.5,2.1-3.5,3.5-6,4.2
							c-1.6,0.4-4.6,0.6-8.8,0.6H17.2V37.5z"/>
					</g>
					<g>
						<path id="ArialMT-32_00000016076632259331708400000017275060202419031219_" d="M117,8.5V0H69.7c-0.1,2.1,0.3,4.2,1,6.1
							c1.2,3.2,3.1,6.4,5.8,9.5c2.7,3.1,6.5,6.7,11.5,10.8c7.8,6.4,13,11.4,15.8,15.2c2.7,3.7,4.1,7.3,4.1,10.6
							c0,3.5-1.2,6.4-3.8,8.8c-2.5,2.4-5.7,3.6-9.7,3.6c-4.2,0-7.6-1.3-10.2-3.8c-2.5-2.5-3.8-6-3.9-10.5l-9,0.9
							c0.6,6.7,2.9,11.9,7,15.4c4,3.5,9.5,5.3,16.3,5.3c6.9,0,12.3-1.9,16.3-5.7c4-3.8,6-8.5,6-14.2c0-2.9-0.6-5.7-1.8-8.5
							c-1.2-2.8-3.1-5.7-5.8-8.7s-7.2-7.3-13.5-12.6c-5.3-4.4-8.7-7.4-10.2-9c-1.5-1.6-2.7-3.2-3.7-4.8H117z"/>
					</g>
					<g>
						<path id="ArialMT-2d_00000024711148603628208720000008036764865452579984_" d="M125.5,21.5v8.8h27v-8.8H125.5z"/>
					</g>
					<g>
						<path id="ArialMT-64_00000176752966059006846950000005049489000109902490_" d="M195.8,0v6.5c-3.3-5.1-8.1-7.7-14.5-7.7
							c-4.1,0-7.9,1.1-11.4,3.4s-6.2,5.5-8.1,9.5c-1.9,4.1-2.8,8.8-2.8,14.1c0,5.2,0.9,9.9,2.6,14.1c1.7,4.2,4.3,7.4,7.8,9.7
							c3.5,2.2,7.3,3.4,11.6,3.4c3.1,0,5.9-0.7,8.3-2c2.4-1.3,4.4-3,6-5.1v25.7h8.7V0H195.8z M168.1,25.9c0-6.6,1.4-11.6,4.2-14.9
							c2.8-3.3,6.1-4.9,9.9-4.9c3.8,0,7.1,1.6,9.8,4.7c2.7,3.1,4,7.9,4,14.4c0,7.1-1.4,12.3-4.1,15.6c-2.7,3.3-6.1,5-10.1,5
							c-3.9,0-7.2-1.6-9.8-4.8C169.4,37.8,168.1,32.7,168.1,25.9z"/>
					</g>
					<g>
						<path id="ArialMT-61_00000016074425640528933730000009727614344882970551_" d="M251.7,6.4c-3.3-2.8-6.4-4.7-9.4-5.9
							c-3-1.1-6.2-1.7-9.7-1.7c-5.7,0-10.1,1.4-13.1,4.2s-4.6,6.3-4.6,10.7c0,2.5,0.6,4.9,1.7,7c1.2,2.1,2.7,3.8,4.5,5.1
							s4,2.2,6.3,2.9c1.7,0.5,4.3,0.9,7.8,1.3c7.1,0.8,12.3,1.8,15.7,3c0,1.2,0,2,0,2.3c0,3.6-0.8,6.1-2.5,7.6c-2.2,2-5.6,3-10,3
							c-4.1,0-7.2-0.7-9.2-2.2s-3.4-4-4.4-7.7l-8.6,1.2c0.8,3.7,2.1,6.6,3.9,8.9s4.4,4,7.8,5.2c3.4,1.2,7.3,1.8,11.8,1.8
							c4.4,0,8-0.5,10.8-1.6c2.8-1,4.8-2.4,6.1-3.9c1.3-1.6,2.2-3.6,2.7-6c0.3-1.5,0.4-4.2,0.4-8.1V21.7c0-8.2,0.2-13.3,0.6-15.5
							c0.4-2.2,1.1-4.2,2.2-6.2h-9.2C252.5,1.8,251.9,4,251.7,6.4z M250.9,26c-3.2-1.3-8-2.4-14.4-3.3c-3.6-0.5-6.2-1.1-7.7-1.8
							c-1.5-0.6-2.6-1.6-3.5-2.8c-0.8-1.2-1.2-2.6-1.2-4.2c0-2.3,0.9-4.3,2.7-5.9c1.8-1.6,4.4-2.3,7.8-2.3c3.4,0,6.4,0.7,9,2.2
							s4.6,3.5,5.8,6.1c0.9,2,1.4,4.9,1.4,8.8V26z"/>
					</g>
					<g>
						<path id="ArialMT-79_00000078750271038571295630000005672436562301643403_" d="M273-20l-1,8.2c1.9-0.5,3.6-0.8,5-0.8
							c2,0,3.5,0.3,4.7,1c1.2,0.6,2.1,1.6,2.9,2.7c0.6,0.9,1.4,3.1,2.7,6.5c0.2,0.5,0.4,1.2,0.8,2.2l-19.7,52h9.5l10.8-30
							c1.4-3.8,2.7-7.8,3.8-12c1,4,2.2,8,3.6,11.8l11.1,30.2h8.8L296.2-0.9c-2.1-5.7-3.8-9.6-4.9-11.8c-1.6-2.9-3.4-5-5.4-6.4
							c-2-1.4-4.4-2-7.2-2C277-21,275.1-20.7,273-20z"/>
					</g>
					<g>
						<path id="ArialMT-37" d="M321.6,62.2v8.5h46.3v-6.8c-4.6-4.8-9.1-11.3-13.6-19.3c-4.5-8-7.9-16.3-10.4-24.8
							c-1.8-6-2.9-12.5-3.4-19.7h-9c0.1,5.6,1.2,12.4,3.3,20.4c2.1,8,5.2,15.7,9.1,23.1s8.2,13.6,12.6,18.7H321.6z"/>
					</g>
				</g>
			</g>
			<g id="PathCollection_19">
				<g>
					<g>
						<path id="ma6e9f24506" class="st9" d="M236.4,155.6c0.8,0,1.6-0.3,2.1-0.9c0.6-0.6,0.9-1.3,0.9-2.1c0-0.8-0.3-1.6-0.9-2.1
							c-0.6-0.6-1.3-0.9-2.1-0.9s-1.6,0.3-2.1,0.9c-0.6,0.6-0.9,1.3-0.9,2.1c0,0.8,0.3,1.6,0.9,2.1
							C234.9,155.3,235.6,155.6,236.4,155.6z"/>
					</g>
				</g>
			</g>
			<g id="text_10">
				<g transform="translate(239.04 153.657188)scale(0.04 -0.04)">
					<g>
						<path id="ArialMT-63_00000129923451109939121740000016132624801467079080_" d="M40.4,19l8.6-1.1c-0.9-6-3.4-10.6-7.3-14
							c-3.9-3.4-8.7-5-14.3-5c-7.1,0-12.8,2.3-17.1,7c-4.3,4.6-6.5,11.3-6.5,20c0,5.6,0.9,10.5,2.8,14.7c1.9,4.2,4.7,7.4,8.5,9.5
							C18.9,52,23.1,53,27.5,53c5.6,0,10.2-1.4,13.8-4.3c3.6-2.8,5.9-6.9,6.9-12.1l-8.5-1.3c-0.8,3.5-2.3,6.1-4.3,7.9
							c-2.1,1.8-4.6,2.6-7.5,2.6c-4.4,0-8-1.6-10.8-4.8c-2.8-3.2-4.1-8.2-4.1-15c0-7,1.3-12,4-15.2c2.7-3.2,6.2-4.7,10.5-4.7
							c3.4,0,6.3,1.1,8.6,3.2S39.8,14.6,40.4,19z"/>
					</g>
					<g>
						<path id="ArialMT-6f_00000114032991853161763380000014300805039482334377_" d="M53.3,25.9c0,9.6,2.7,16.7,8,21.3
							c4.5,3.8,9.9,5.8,16.3,5.8c7.1,0,12.9-2.3,17.5-7c4.5-4.7,6.8-11.1,6.8-19.4c0-6.7-1-11.9-3-15.7c-2-3.8-4.9-6.8-8.8-8.9
							c-3.8-2.1-8-3.2-12.5-3.2c-7.3,0-13.1,2.3-17.6,7C55.6,10.5,53.3,17.2,53.3,25.9z M62.4,25.9c0-6.6,1.4-11.6,4.3-14.9
							c2.9-3.3,6.5-5,10.9-5c4.4,0,8,1.7,10.9,5c2.9,3.3,4.3,8.4,4.3,15.2c0,6.4-1.5,11.3-4.4,14.6c-2.9,3.3-6.5,5-10.9,5
							c-4.4,0-8-1.6-10.9-4.9C63.8,37.5,62.4,32.6,62.4,25.9z"/>
					</g>
					<g>
						<path id="ArialMT-6e_00000046322695486592450490000002533469162740320437_" d="M112.2,0v51.9h7.9v-7.4
							c3.8,5.7,9.3,8.5,16.5,8.5c3.1,0,6-0.6,8.6-1.7s4.6-2.6,5.9-4.4s2.2-4,2.7-6.5c0.3-1.6,0.5-4.5,0.5-8.5V0h-8.8v31.5
							c0,3.6-0.3,6.3-1,8c-0.7,1.8-1.9,3.2-3.6,4.2c-1.7,1.1-3.8,1.6-6.1,1.6c-3.8,0-7-1.2-9.7-3.6S121,35,121,28.3V0H112.2z"/>
					</g>
					<g>
						<path id="ArialMT-74_00000055674408070560066970000018220112383294600373_" d="M187,7.9l1.3-7.8c-2.5-0.5-4.7-0.8-6.6-0.8
							c-3.2,0-5.7,0.5-7.4,1.5c-1.8,1-3,2.3-3.7,4s-1.1,5.1-1.1,10.4V45H163v6.8h6.4v12.8l8.7,5.3V51.9h8.8V45h-8.8V14.7
							c0-2.5,0.2-4.1,0.5-4.8c0.3-0.7,0.8-1.3,1.5-1.7c0.7-0.4,1.7-0.6,3-0.6C184.1,7.5,185.4,7.6,187,7.9z"/>
					</g>
					<g>
						<path id="ArialMT-72_00000137840198469489225430000000758127205865882289_" d="M195.5,0v51.9h7.9V44c2,3.7,3.9,6.1,5.6,7.3
							c1.7,1.2,3.6,1.8,5.6,1.8c3,0,6-0.9,9-2.8l-3-8.2c-2.1,1.3-4.3,1.9-6.4,1.9c-1.9,0-3.7-0.6-5.2-1.7s-2.6-2.8-3.3-4.8
							c-1-3.1-1.5-6.5-1.5-10.2V0H195.5z"/>
					</g>
					<g>
						<path id="ArialMT-6f_00000041277042553214345450000003592149842355600044_" d="M225.6,25.9c0,9.6,2.7,16.7,8,21.3
							c4.5,3.8,9.9,5.8,16.3,5.8c7.1,0,12.9-2.3,17.5-7c4.5-4.7,6.8-11.1,6.8-19.4c0-6.7-1-11.9-3-15.7c-2-3.8-4.9-6.8-8.8-8.9
							c-3.8-2.1-8-3.2-12.5-3.2c-7.3,0-13.1,2.3-17.6,7C227.9,10.5,225.6,17.2,225.6,25.9z M234.7,25.9c0-6.6,1.4-11.6,4.3-14.9
							s6.5-5,10.9-5c4.4,0,8,1.7,10.9,5c2.9,3.3,4.3,8.4,4.3,15.2c0,6.4-1.5,11.3-4.4,14.6s-6.5,5-10.9,5c-4.4,0-8-1.6-10.9-4.9
							C236.1,37.5,234.7,32.6,234.7,25.9z"/>
					</g>
					<g>
						<path id="ArialMT-6c" d="M284.3,0v71.6h8.8V0H284.3z"/>
					</g>
					<g>
						<path id="ArialMT-20" d="M300.1,0"/>
					</g>
					<g>
						<path id="ArialMT-28" d="M351.3-21c-4.9,6.1-9,13.3-12.3,21.5c-3.3,8.2-5,16.7-5,25.5c0,7.8,1.2,15.2,3.8,22.3
							c2.9,8.2,7.5,16.4,13.6,24.6h6.3c-3.9-6.8-6.5-11.6-7.8-14.5c-2-4.5-3.6-9.2-4.7-14.1c-1.4-6.1-2.1-12.2-2.1-18.4
							c0-15.7,4.9-31.3,14.6-46.9H351.3z"/>
					</g>
					<g>
						<path id="ArialMT-71" d="M400.9-19.9V5.5c-1.4-1.9-3.3-3.5-5.8-4.8s-5.1-1.9-7.8-1.9c-6.2,0-11.5,2.5-15.9,7.4
							c-4.4,4.9-6.7,11.7-6.7,20.2c0,5.2,0.9,9.9,2.7,14c1.8,4.1,4.4,7.3,7.9,9.4c3.4,2.1,7.2,3.2,11.3,3.2c6.4,0,11.5-2.7,15.1-8.1
							v6.9h7.9v-71.7H400.9z M373.8,26.1c0-6.7,1.4-11.7,4.2-15s6.2-5,10.1-5c3.7,0,7,1.6,9.7,4.7c2.7,3.2,4.1,8,4.1,14.5
							c0,6.9-1.4,12.1-4.3,15.6c-2.8,3.5-6.2,5.2-10,5.2c-3.8,0-7-1.6-9.7-4.9S373.8,32.9,373.8,26.1z"/>
					</g>
					<g>
						<path id="ArialMT-75" d="M457.4,0v7.6c-4-5.9-9.5-8.8-16.5-8.8c-3.1,0-5.9,0.6-8.6,1.8c-2.6,1.2-4.6,2.7-5.9,4.4
							c-1.3,1.8-2.2,4-2.7,6.5c-0.4,1.7-0.5,4.5-0.5,8.2v32.1h8.8V23.1c0-4.6,0.2-7.7,0.5-9.3c0.6-2.3,1.7-4.1,3.5-5.4s4-2,6.6-2
							s5.1,0.7,7.4,2s3.9,3.2,4.9,5.5c1,2.3,1.5,5.7,1.5,10.1v27.8h8.8V0H457.4z"/>
					</g>
					<g>
						<path id="ArialMT-65_00000091712034006674905860000017947399211756208554_" d="M514.6,16.7l9.1-1.1c-1.4-5.3-4.1-9.4-8-12.4
							c-3.9-2.9-8.8-4.4-14.8-4.4c-7.6,0-13.6,2.3-18,7c-4.4,4.7-6.7,11.2-6.7,19.7c0,8.7,2.2,15.5,6.7,20.3
							c4.5,4.8,10.3,7.2,17.5,7.2c6.9,0,12.6-2.4,17-7.1s6.6-11.4,6.6-19.9c0-0.5,0-1.3,0-2.3h-38.7c0.3-5.7,1.9-10.1,4.8-13.1
							c2.9-3,6.5-4.5,10.8-4.5c3.2,0,6,0.8,8.2,2.5C511.4,10.3,513.2,13,514.6,16.7z M485.7,30.9h29c-0.4,4.4-1.5,7.6-3.3,9.8
							c-2.8,3.4-6.4,5.1-10.9,5.1c-4,0-7.4-1.3-10.2-4S486,35.4,485.7,30.9z"/>
					</g>
					<g>
						<path id="ArialMT-72_00000168831184846143352380000015388297280726402446_" d="M534.6,0v51.9h7.9V44c2,3.7,3.9,6.1,5.6,7.3
							c1.7,1.2,3.6,1.8,5.6,1.8c3,0,6-0.9,9-2.8l-3-8.2c-2.1,1.3-4.3,1.9-6.4,1.9c-1.9,0-3.7-0.6-5.2-1.7s-2.6-2.8-3.3-4.8
							c-1-3.1-1.5-6.5-1.5-10.2V0H534.6z"/>
					</g>
					<g>
						<path id="ArialMT-79_00000047029317767144461280000004783752406402890891_" d="M567.6-20l-1,8.2c1.9-0.5,3.6-0.8,5-0.8
							c2,0,3.5,0.3,4.7,1c1.2,0.6,2.1,1.6,2.9,2.7c0.6,0.9,1.4,3.1,2.7,6.5c0.2,0.5,0.4,1.2,0.8,2.2l-19.7,52h9.5l10.8-30
							c1.4-3.8,2.7-7.8,3.8-12c1,4,2.2,8,3.6,11.8l11.1,30.2h8.8L590.8-0.9c-2.1-5.7-3.8-9.6-4.9-11.8c-1.6-2.9-3.4-5-5.4-6.4
							c-2-1.4-4.4-2-7.2-2C571.5-21,569.7-20.7,567.6-20z"/>
					</g>
					<g>
						<path id="ArialMT-29" d="M623.7-21h-6.3C627.2-5.4,632,10.2,632,25.9c0,6.1-0.7,12.2-2.1,18.2c-1.1,4.9-2.7,9.6-4.6,14.1
							c-1.3,2.9-3.9,7.8-7.9,14.6h6.3c6.1-8.2,10.6-16.4,13.6-24.6c2.5-7.1,3.8-14.5,3.8-22.3c0-8.8-1.7-17.3-5.1-25.5
							C632.6-7.8,628.5-14.9,623.7-21z"/>
					</g>
				</g>
			</g>
			<g id="PathCollection_20">
				<g>
					<g>
						<path id="mf2d9c1a461" class="st10" d="M236.4,161.4c0.8,0,1.6-0.3,2.1-0.9c0.6-0.6,0.9-1.3,0.9-2.1c0-0.8-0.3-1.6-0.9-2.1
							c-0.6-0.6-1.3-0.9-2.1-0.9s-1.6,0.3-2.1,0.9c-0.6,0.6-0.9,1.3-0.9,2.1c0,0.8,0.3,1.6,0.9,2.1
							C234.9,161,235.6,161.4,236.4,161.4z"/>
					</g>
				</g>
			</g>
			<g id="text_11">
				<g transform="translate(239.04 159.410938)scale(0.04 -0.04)">
					<g>
						<path id="ArialMT-63_00000166673688365786566180000015964922320552770990_" d="M40.4,19l8.6-1.1c-0.9-6-3.4-10.6-7.3-14
							c-3.9-3.4-8.7-5-14.3-5c-7.1,0-12.8,2.3-17.1,7c-4.3,4.6-6.5,11.3-6.5,20c0,5.6,0.9,10.5,2.8,14.7c1.9,4.2,4.7,7.4,8.5,9.5
							C18.9,52,23.1,53,27.5,53c5.6,0,10.2-1.4,13.8-4.3c3.6-2.8,5.9-6.9,6.9-12.1l-8.5-1.3c-0.8,3.5-2.3,6.1-4.3,7.9
							c-2.1,1.8-4.6,2.6-7.5,2.6c-4.4,0-8-1.6-10.8-4.8c-2.8-3.2-4.1-8.2-4.1-15c0-7,1.3-12,4-15.2c2.7-3.2,6.2-4.7,10.5-4.7
							c3.4,0,6.3,1.1,8.6,3.2S39.8,14.6,40.4,19z"/>
					</g>
					<g>
						<path id="ArialMT-6f_00000118360739343883656750000016480460333349310863_" d="M53.3,25.9c0,9.6,2.7,16.7,8,21.3
							c4.5,3.8,9.9,5.8,16.3,5.8c7.1,0,12.9-2.3,17.5-7c4.5-4.7,6.8-11.1,6.8-19.4c0-6.7-1-11.9-3-15.8c-2-3.8-4.9-6.8-8.8-8.9
							c-3.8-2.1-8-3.2-12.5-3.2c-7.3,0-13.1,2.3-17.6,7C55.6,10.5,53.3,17.2,53.3,25.9z M62.4,25.9c0-6.6,1.4-11.6,4.3-14.9
							c2.9-3.3,6.5-5,10.9-5c4.4,0,8,1.7,10.9,5c2.9,3.3,4.3,8.4,4.3,15.2c0,6.4-1.5,11.3-4.4,14.6c-2.9,3.3-6.5,5-10.9,5
							c-4.4,0-8-1.6-10.9-4.9C63.8,37.5,62.4,32.6,62.4,25.9z"/>
					</g>
					<g>
						<path id="ArialMT-6e_00000070082248537118387900000006526950586285643941_" d="M112.2,0v51.9h7.9v-7.4
							c3.8,5.7,9.3,8.5,16.5,8.5c3.1,0,6-0.6,8.6-1.7s4.6-2.6,5.9-4.4s2.2-4,2.7-6.5c0.3-1.6,0.5-4.5,0.5-8.5V0h-8.8v31.5
							c0,3.6-0.3,6.3-1,8c-0.7,1.8-1.9,3.2-3.6,4.2c-1.7,1.1-3.8,1.6-6.1,1.6c-3.8,0-7-1.2-9.7-3.6S121,35,121,28.3V0H112.2z"/>
					</g>
					<g>
						<path id="ArialMT-74_00000131349860796628642030000013621583928046378921_" d="M187,7.9l1.3-7.8c-2.5-0.5-4.7-0.8-6.6-0.8
							c-3.2,0-5.7,0.5-7.4,1.5c-1.8,1-3,2.3-3.7,4s-1.1,5.1-1.1,10.4V45H163v6.8h6.4v12.8l8.7,5.3V51.9h8.8V45h-8.8V14.7
							c0-2.5,0.2-4.1,0.5-4.8c0.3-0.7,0.8-1.3,1.5-1.7c0.7-0.4,1.7-0.6,3-0.6C184.1,7.5,185.4,7.6,187,7.9z"/>
					</g>
					<g>
						<path id="ArialMT-72_00000044145211166885325930000016391232952921929391_" d="M195.5,0v51.9h7.9V44c2,3.7,3.9,6.1,5.6,7.3
							c1.7,1.2,3.6,1.8,5.6,1.8c3,0,6-0.9,9-2.8l-3-8.2c-2.1,1.3-4.3,1.9-6.4,1.9c-1.9,0-3.7-0.6-5.2-1.7s-2.6-2.8-3.3-4.8
							c-1-3.1-1.5-6.5-1.5-10.2V0H195.5z"/>
					</g>
					<g>
						<path id="ArialMT-6f_00000113332446277119919650000007239573100774037680_" d="M225.6,25.9c0,9.6,2.7,16.7,8,21.3
							c4.5,3.8,9.9,5.8,16.3,5.8c7.1,0,12.9-2.3,17.5-7c4.5-4.7,6.8-11.1,6.8-19.4c0-6.7-1-11.9-3-15.8c-2-3.8-4.9-6.8-8.8-8.9
							c-3.8-2.1-8-3.2-12.5-3.2c-7.3,0-13.1,2.3-17.6,7C227.9,10.5,225.6,17.2,225.6,25.9z M234.7,25.9c0-6.6,1.4-11.6,4.3-14.9
							s6.5-5,10.9-5c4.4,0,8,1.7,10.9,5c2.9,3.3,4.3,8.4,4.3,15.2c0,6.4-1.5,11.3-4.4,14.6s-6.5,5-10.9,5c-4.4,0-8-1.6-10.9-4.9
							C236.1,37.5,234.7,32.6,234.7,25.9z"/>
					</g>
					<g>
						<path id="ArialMT-6c_00000047746122807592115590000011184618171798180529_" d="M284.3,0v71.6h8.8V0H284.3z"/>
					</g>
					<g>
						<path id="ArialMT-20_00000102529257398606409110000016346404229581651885_" d="M300.1,0"/>
					</g>
					<g>
						<path id="ArialMT-28_00000104681501632262473560000013313487475964390790_" d="M351.3-21c-4.9,6.1-9,13.3-12.3,21.5
							c-3.3,8.2-5,16.7-5,25.5c0,7.8,1.2,15.2,3.8,22.3c2.9,8.2,7.5,16.4,13.6,24.6h6.3c-3.9-6.8-6.5-11.6-7.8-14.5
							c-2-4.5-3.6-9.2-4.7-14.1c-1.4-6.1-2.1-12.2-2.1-18.4c0-15.7,4.9-31.3,14.6-46.9H351.3z"/>
					</g>
					<g>
						<path id="ArialMT-72_00000183965903422549641630000007454341782049160341_" d="M367.7,0v51.9h7.9V44c2,3.7,3.9,6.1,5.6,7.3
							c1.7,1.2,3.6,1.8,5.6,1.8c3,0,6-0.9,9-2.8l-3-8.2c-2.1,1.3-4.3,1.9-6.4,1.9c-1.9,0-3.7-0.6-5.2-1.7s-2.6-2.8-3.3-4.8
							c-1-3.1-1.5-6.5-1.5-10.2V0H367.7z"/>
					</g>
					<g>
						<path id="ArialMT-65_00000078725981338121766610000007072755027094538119_" d="M436.6,16.7l9.1-1.1c-1.4-5.3-4.1-9.4-8-12.4
							c-3.9-2.9-8.8-4.4-14.8-4.4c-7.6,0-13.6,2.3-18,7c-4.4,4.7-6.7,11.2-6.7,19.7c0,8.7,2.2,15.5,6.7,20.3
							c4.5,4.8,10.3,7.2,17.5,7.2c6.9,0,12.6-2.4,17-7.1S446,34.6,446,26c0-0.5,0-1.3,0-2.3h-38.7c0.3-5.7,1.9-10.1,4.8-13.1
							c2.9-3,6.5-4.5,10.8-4.5c3.2,0,6,0.8,8.2,2.5C433.5,10.3,435.3,13,436.6,16.7z M407.8,30.9h29c-0.4,4.4-1.5,7.6-3.3,9.8
							c-2.8,3.4-6.4,5.1-10.9,5.1c-4,0-7.4-1.3-10.2-4S408.1,35.4,407.8,30.9z"/>
					</g>
					<g>
						<path id="ArialMT-66" d="M458.8,0v45h-7.8v6.8h7.8v5.5c0,3.5,0.3,6.1,0.9,7.8c0.8,2.3,2.3,4.1,4.5,5.5c2.1,1.4,5.1,2.1,9,2.1
							c2.5,0,5.2-0.3,8.2-0.9l-1.3-7.7c-1.8,0.3-3.6,0.5-5.2,0.5c-2.7,0-4.6-0.6-5.7-1.7c-1.1-1.1-1.7-3.3-1.7-6.4v-4.8h10.1V45
							h-10.1V0H458.8z"/>
					</g>
					<g>
						<path id="ArialMT-65_00000021818411628486226210000001780876371244246150_" d="M520,16.7l9.1-1.1c-1.4-5.3-4.1-9.4-8-12.4
							c-3.9-2.9-8.8-4.4-14.8-4.4c-7.6,0-13.6,2.3-18,7c-4.4,4.7-6.7,11.2-6.7,19.7c0,8.7,2.2,15.5,6.7,20.3
							c4.5,4.8,10.3,7.2,17.5,7.2c6.9,0,12.6-2.4,17-7.1s6.6-11.4,6.6-19.9c0-0.5,0-1.3,0-2.3h-38.7c0.3-5.7,1.9-10.1,4.8-13.1
							c2.9-3,6.5-4.5,10.8-4.5c3.2,0,6,0.8,8.2,2.5C516.9,10.3,518.7,13,520,16.7z M491.2,30.9h29c-0.4,4.4-1.5,7.6-3.3,9.8
							c-2.8,3.4-6.4,5.1-10.9,5.1c-4,0-7.4-1.3-10.2-4S491.5,35.4,491.2,30.9z"/>
					</g>
					<g>
						<path id="ArialMT-72_00000160890612293147341680000005097528670163170689_" d="M540,0v51.9h7.9V44c2,3.7,3.9,6.1,5.6,7.3
							c1.7,1.2,3.6,1.8,5.6,1.8c3,0,6-0.9,9-2.8l-3-8.2c-2.1,1.3-4.3,1.9-6.4,1.9c-1.9,0-3.7-0.6-5.2-1.7s-2.6-2.8-3.3-4.8
							c-1-3.1-1.5-6.5-1.5-10.2V0H540z"/>
					</g>
					<g>
						<path id="ArialMT-65_00000134945052376220681360000014304984028007376304_" d="M608.9,16.7l9.1-1.1c-1.4-5.3-4.1-9.4-8-12.4
							c-3.9-2.9-8.8-4.4-14.8-4.4c-7.6,0-13.6,2.3-18,7c-4.4,4.7-6.7,11.2-6.7,19.7c0,8.7,2.2,15.5,6.7,20.3
							c4.5,4.8,10.3,7.2,17.5,7.2c6.9,0,12.6-2.4,17-7.1s6.6-11.4,6.6-19.9c0-0.5,0-1.3,0-2.3h-38.7c0.3-5.7,1.9-10.1,4.8-13.1
							c2.9-3,6.5-4.5,10.8-4.5c3.2,0,6,0.8,8.2,2.5C605.8,10.3,607.6,13,608.9,16.7z M580.1,30.9h29c-0.4,4.4-1.5,7.6-3.3,9.8
							c-2.8,3.4-6.4,5.1-10.9,5.1c-4,0-7.4-1.3-10.2-4S580.4,35.4,580.1,30.9z"/>
					</g>
					<g>
						<path id="ArialMT-6e_00000160165778486617897510000011455695433064358027_" d="M629.1,0v51.9h7.9v-7.4
							c3.8,5.7,9.3,8.5,16.5,8.5c3.1,0,6-0.6,8.6-1.7s4.6-2.6,5.9-4.4s2.2-4,2.7-6.5c0.3-1.6,0.5-4.5,0.5-8.5V0h-8.8v31.5
							c0,3.6-0.3,6.3-1,8c-0.7,1.8-1.9,3.2-3.6,4.2c-1.7,1.1-3.8,1.6-6.1,1.6c-3.8,0-7-1.2-9.7-3.6s-4.1-6.9-4.1-13.5V0H629.1z"/>
					</g>
					<g>
						<path id="ArialMT-63_00000031913805007333083700000007575162829177303951_" d="M718.5,19l8.6-1.1c-0.9-6-3.4-10.6-7.3-14
							c-3.9-3.4-8.7-5-14.3-5c-7.1,0-12.8,2.3-17.1,7c-4.3,4.6-6.5,11.3-6.5,20c0,5.6,0.9,10.5,2.8,14.7c1.9,4.2,4.7,7.4,8.5,9.5
							c3.8,2.1,7.9,3.2,12.4,3.2c5.6,0,10.2-1.4,13.8-4.3c3.6-2.8,5.9-6.9,6.9-12.1l-8.5-1.3c-0.8,3.5-2.3,6.1-4.3,7.9
							c-2.1,1.8-4.6,2.6-7.5,2.6c-4.4,0-8-1.6-10.8-4.8c-2.8-3.2-4.1-8.2-4.1-15c0-7,1.3-12,4-15.2c2.7-3.2,6.2-4.7,10.5-4.7
							c3.4,0,6.3,1.1,8.6,3.2S717.9,14.6,718.5,19z"/>
					</g>
					<g>
						<path id="ArialMT-65_00000039126284790713248390000008676887339045950120_" d="M770.2,16.7l9.1-1.1c-1.4-5.3-4.1-9.4-8-12.4
							c-3.9-2.9-8.8-4.4-14.8-4.4c-7.6,0-13.6,2.3-18,7c-4.4,4.7-6.7,11.2-6.7,19.7c0,8.7,2.2,15.5,6.7,20.3
							C743,50.6,748.8,53,756,53c6.9,0,12.6-2.4,17-7.1s6.6-11.4,6.6-19.9c0-0.5,0-1.3,0-2.3h-38.7c0.3-5.7,1.9-10.1,4.8-13.1
							c2.9-3,6.5-4.5,10.8-4.5c3.2,0,6,0.8,8.2,2.5C767,10.3,768.8,13,770.2,16.7z M741.3,30.9h29c-0.4,4.4-1.5,7.6-3.3,9.8
							c-2.8,3.4-6.4,5.1-10.9,5.1c-4,0-7.4-1.3-10.2-4S741.6,35.4,741.3,30.9z"/>
					</g>
					<g>
						<path id="ArialMT-29_00000047024928403071679610000009749031229661515431_" d="M796.1-21h-6.3c9.7,15.6,14.6,31.3,14.6,46.9
							c0,6.1-0.7,12.2-2.1,18.2c-1.1,4.9-2.7,9.6-4.6,14.1c-1.3,2.9-3.9,7.8-7.9,14.6h6.3c6.1-8.2,10.6-16.4,13.6-24.6
							c2.5-7.1,3.8-14.5,3.8-22.3c0-8.8-1.7-17.3-5.1-25.5C805-7.8,800.9-14.9,796.1-21z"/>
					</g>
				</g>
			</g>
		</g>
	</g>
</g>
</svg>
