<?xml version="1.0" encoding="utf-8"?>
<!-- Generator: Adobe Illustrator 25.4.1, SVG Export Plug-In . SVG Version: 6.00 Build 0)  -->
<svg version="1.1" id="Layer_1" xmlns="http://www.w3.org/2000/svg" xmlns:xlink="http://www.w3.org/1999/xlink" x="0px" y="0px"
	 viewBox="0 0 280.3 249.3" style="enable-background:new 0 0 280.3 249.3;" xml:space="preserve">
<style type="text/css">
	.st0{fill:none;}
	.st1{fill:#1F77B4;stroke:#1F77B4;stroke-linejoin:round;}
	.st2{fill:#FF7F0E;stroke:#FF7F0E;stroke-linejoin:round;}
	.st3{fill:#279E68;stroke:#279E68;stroke-linejoin:round;}
	.st4{fill:#D62728;stroke:#D62728;stroke-linejoin:round;}
</style>
<g id="figure_1">
	<g id="patch_1">
		<path class="st0" d="M0,249.3h280.3V0H0V249.3z"/>
	</g>
	<g id="axes_1">
		
			<image style="overflow:visible;enable-background:new    ;" width="854" height="832" id="image10fa11f636" xlink:href="4A900A3F133423D3.png"  transform="matrix(0.24 0 0 -0.24 17.04 232.32)">
		</image>
		<g id="PathCollection_1">
		</g>
		<g id="PathCollection_2">
		</g>
		<g id="PathCollection_3">
		</g>
		<g id="PathCollection_4">
		</g>
		<g id="legend_1">
			<g id="PathCollection_5">
				<g>
					<g>
						<path id="m2c43f94f89" class="st1" d="M236.4,127.1c0.8,0,1.6-0.3,2.1-0.9c0.6-0.6,0.9-1.3,0.9-2.1s-0.3-1.6-0.9-2.1
							c-0.6-0.6-1.3-0.9-2.1-0.9s-1.6,0.3-2.1,0.9c-0.6,0.6-0.9,1.3-0.9,2.1s0.3,1.6,0.9,2.1C234.9,126.7,235.6,127.1,236.4,127.1z"
							/>
					</g>
				</g>
			</g>
			<g id="text_2">
				<g transform="translate(239.04 125.112188)scale(0.04 -0.04)">
					<g>
						<path id="ArialMT-49" d="M9.3,0v71.6h9.5V0H9.3z"/>
					</g>
					<g>
						<path id="ArialMT-4e" d="M35.4,0v71.6h9.7l37.6-56.2v56.2h9.1V0h-9.7L44.5,56.2V0H35.4z"/>
					</g>
					<g>
						<path id="ArialMT-46" d="M108.2,0v71.6h48.3v-8.4h-38.8V41h33.6v-8.5h-33.6V0H108.2z"/>
					</g>
					<g>
						<path id="ArialMT-2d" d="M164.3,21.5v8.8h27v-8.8H164.3z"/>
					</g>
					<g>
						<path id="ArialMT-42" d="M201.7,0v71.6h26.9c5.5,0,9.9-0.7,13.2-2.2s5.9-3.7,7.8-6.7c1.9-3,2.8-6.2,2.8-9.5
							c0-3.1-0.8-5.9-2.5-8.6c-1.7-2.7-4.2-4.9-7.5-6.5c4.3-1.3,7.6-3.4,10-6.5c2.3-3.1,3.5-6.7,3.5-10.8c0-3.4-0.7-6.5-2.1-9.4
							c-1.4-2.9-3.2-5.1-5.2-6.7s-4.7-2.7-7.8-3.5c-3.1-0.8-7-1.2-11.5-1.2H201.7z M211.2,41.5h15.5c4.2,0,7.2,0.3,9,0.8
							c2.4,0.7,4.2,1.9,5.4,3.6c1.2,1.7,1.8,3.8,1.8,6.3c0,2.4-0.6,4.5-1.7,6.3c-1.1,1.8-2.8,3.1-4.9,3.7c-2.1,0.7-5.7,1-10.9,1
							h-14.3V41.5z M211.2,8.5H229c3.1,0,5.2,0.1,6.4,0.3c2.2,0.4,4,1,5.5,1.9c1.5,0.9,2.7,2.2,3.6,4c0.9,1.7,1.4,3.8,1.4,6
							c0,2.7-0.7,5-2,7c-1.4,2-3.3,3.4-5.7,4.2c-2.4,0.8-5.9,1.2-10.5,1.2h-16.5V8.5z"/>
					</g>
					<g>
						<path id="ArialMT-65_00000058574912656785879070000002531813216069643918_" d="M303.2,16.7l9.1-1.1c-1.4-5.3-4.1-9.4-8-12.4
							c-3.9-2.9-8.8-4.4-14.8-4.4c-7.6,0-13.6,2.3-18,7c-4.4,4.7-6.7,11.2-6.7,19.7c0,8.7,2.2,15.5,6.7,20.3
							C276,50.6,281.8,53,289,53c6.9,0,12.6-2.4,17-7.1s6.6-11.4,6.6-19.9c0-0.5,0-1.3,0-2.3h-38.7c0.3-5.7,1.9-10.1,4.8-13.1
							c2.9-3,6.5-4.5,10.8-4.5c3.2,0,6,0.8,8.2,2.5C300,10.3,301.8,13,303.2,16.7z M274.3,30.9h29c-0.4,4.4-1.5,7.6-3.3,9.8
							c-2.8,3.4-6.4,5.1-10.9,5.1c-4,0-7.4-1.3-10.2-4S274.6,35.4,274.3,30.9z"/>
					</g>
					<g>
						<path id="ArialMT-74" d="M342.5,7.9l1.3-7.8c-2.5-0.5-4.7-0.8-6.6-0.8c-3.2,0-5.7,0.5-7.4,1.5c-1.8,1-3,2.3-3.7,4
							s-1.1,5.1-1.1,10.4V45h-6.4v6.8h6.4v12.8l8.7,5.3V51.9h8.8V45h-8.8V14.7c0-2.5,0.2-4.1,0.5-4.8c0.3-0.7,0.8-1.3,1.5-1.7
							s1.7-0.6,3-0.6C339.6,7.5,340.9,7.6,342.5,7.9z"/>
					</g>
					<g>
						<path id="ArialMT-61" d="M384.9,6.4c-3.3-2.8-6.4-4.7-9.4-5.9c-3-1.1-6.2-1.7-9.7-1.7c-5.7,0-10.1,1.4-13.1,4.2
							s-4.6,6.3-4.6,10.7c0,2.5,0.6,4.9,1.7,7c1.2,2.1,2.7,3.8,4.5,5.1s4,2.2,6.3,2.9c1.7,0.5,4.3,0.9,7.8,1.3
							c7.1,0.8,12.3,1.8,15.7,3c0,1.2,0,2,0,2.3c0,3.6-0.8,6.1-2.5,7.6c-2.2,2-5.6,3-10,3c-4.1,0-7.2-0.7-9.2-2.2s-3.4-4-4.4-7.7
							l-8.6,1.2c0.8,3.7,2.1,6.6,3.9,8.9s4.4,4,7.8,5.2c3.4,1.2,7.3,1.8,11.8,1.8c4.4,0,8-0.5,10.8-1.6c2.8-1,4.8-2.4,6.1-3.9
							c1.3-1.6,2.2-3.6,2.7-6c0.3-1.5,0.4-4.2,0.4-8.1V21.7c0-8.2,0.2-13.3,0.6-15.5c0.4-2.2,1.1-4.2,2.2-6.2h-9.2
							C385.8,1.8,385.2,4,384.9,6.4z M384.2,26c-3.2-1.3-8-2.4-14.4-3.3c-3.6-0.5-6.2-1.1-7.7-1.8c-1.5-0.6-2.6-1.6-3.5-2.8
							c-0.8-1.2-1.2-2.6-1.2-4.2c0-2.3,0.9-4.3,2.7-5.9c1.8-1.6,4.4-2.3,7.8-2.3c3.4,0,6.4,0.7,9,2.2s4.6,3.5,5.8,6.1
							c0.9,2,1.4,4.9,1.4,8.8V26z"/>
					</g>
				</g>
			</g>
			<g id="PathCollection_6">
				<g>
					<g>
						<path id="maffdbb514b" class="st2" d="M236.4,132.8c0.8,0,1.6-0.3,2.1-0.9c0.6-0.6,0.9-1.3,0.9-2.1c0-0.8-0.3-1.6-0.9-2.1
							c-0.6-0.6-1.3-0.9-2.1-0.9s-1.6,0.3-2.1,0.9c-0.6,0.6-0.9,1.3-0.9,2.1c0,0.8,0.3,1.6,0.9,2.1
							C234.9,132.5,235.6,132.8,236.4,132.8z"/>
					</g>
				</g>
			</g>
			<g id="text_3">
				<g transform="translate(239.04 130.819063)scale(0.04 -0.04)">
					<g>
						<path id="ArialMT-52" d="M7.9,0v71.6h31.7c6.4,0,11.2-0.6,14.5-1.9c3.3-1.3,6-3.6,8-6.8c2-3.2,3-6.8,3-10.8
							c0-5.1-1.6-9.4-4.9-12.8c-3.3-3.5-8.4-5.7-15.2-6.6c2.5-1.2,4.4-2.4,5.7-3.6c2.8-2.5,5.4-5.7,7.9-9.5L71,0H59l-9.5,14.9
							c-2.8,4.3-5.1,7.6-6.8,9.9c-1.8,2.3-3.4,3.9-4.8,4.8c-1.4,0.9-2.9,1.6-4.3,1.9c-1.1,0.2-2.8,0.3-5.3,0.3h-11V0H7.9z M17.3,40
							h20.4c4.3,0,7.7,0.4,10.1,1.3c2.4,0.9,4.3,2.3,5.6,4.3s1.9,4.1,1.9,6.4c0,3.4-1.2,6.2-3.7,8.3c-2.5,2.2-6.3,3.3-11.7,3.3H17.3
							V40z"/>
					</g>
					<g>
						<path id="ArialMT-65_00000038390129504451793990000002999915636366963902_" d="M114.3,16.7l9.1-1.1c-1.4-5.3-4.1-9.4-8-12.4
							c-3.9-2.9-8.8-4.4-14.8-4.4c-7.6,0-13.6,2.3-18,7c-4.4,4.7-6.7,11.2-6.7,19.7c0,8.7,2.2,15.5,6.7,20.3
							c4.5,4.8,10.3,7.2,17.5,7.2c6.9,0,12.6-2.4,17-7.1c4.4-4.7,6.6-11.4,6.6-19.9c0-0.5,0-1.3,0-2.3H85c0.3-5.7,1.9-10.1,4.8-13.1
							c2.9-3,6.5-4.5,10.8-4.5c3.2,0,6,0.8,8.2,2.5C111.2,10.3,113,13,114.3,16.7z M85.5,30.9h29c-0.4,4.4-1.5,7.6-3.3,9.8
							c-2.8,3.4-6.4,5.1-10.9,5.1c-4,0-7.4-1.3-10.2-4S85.7,35.4,85.5,30.9z"/>
					</g>
					<g>
						<path id="ArialMT-6d" d="M134.4,0v51.9h7.9v-7.3c1.6,2.5,3.8,4.6,6.5,6.1c2.7,1.6,5.8,2.3,9.2,2.3c3.8,0,7-0.8,9.5-2.4
							s4.2-3.8,5.2-6.7c4.1,6.1,9.4,9.1,16,9.1c5.1,0,9.1-1.4,11.9-4.3c2.8-2.8,4.2-7.2,4.2-13.2V0h-8.8v32.7c0,3.5-0.3,6-0.9,7.6
							c-0.6,1.6-1.6,2.8-3.1,3.7c-1.5,0.9-3.2,1.4-5.3,1.4c-3.6,0-6.7-1.2-9.1-3.6c-2.4-2.4-3.6-6.3-3.6-11.6V0h-8.8v33.7
							c0,3.9-0.7,6.8-2.2,8.8c-1.4,2-3.8,2.9-7,2.9c-2.5,0-4.8-0.7-6.9-2c-2.1-1.3-3.6-3.2-4.6-5.7c-0.9-2.5-1.4-6.1-1.4-10.8V0
							H134.4z"/>
					</g>
					<g>
						<path id="ArialMT-69" d="M217.8,61.5v10.1h8.8V61.5H217.8z M217.8,0v51.9h8.8V0H217.8z"/>
					</g>
					<g>
						<path id="ArialMT-73_00000054223490368023043220000011845281414090973113_" d="M236.4,15.5l8.7,1.4c0.5-3.5,1.8-6.1,4.1-8
							s5.3-2.8,9.4-2.8c4,0,7,0.8,9,2.5c2,1.6,2.9,3.6,2.9,5.8c0,2-0.9,3.5-2.6,4.7c-1.2,0.8-4.2,1.8-9,3c-6.4,1.6-10.9,3-13.4,4.2
							s-4.4,2.8-5.7,4.9c-1.3,2.1-1.9,4.4-1.9,7c0,2.3,0.5,4.4,1.6,6.4c1.1,2,2.5,3.6,4.3,4.9c1.4,1,3.2,1.8,5.6,2.5
							c2.4,0.7,4.9,1.1,7.6,1.1c4.1,0,7.6-0.6,10.7-1.8c3.1-1.2,5.4-2.8,6.8-4.8c1.5-2,2.5-4.7,3-8l-8.6-1.2
							c-0.4,2.7-1.5,4.7-3.4,6.2c-1.9,1.5-4.5,2.2-7.9,2.2c-4,0-6.9-0.7-8.6-2s-2.6-2.9-2.6-4.7c0-1.1,0.4-2.2,1.1-3.1
							c0.7-0.9,1.8-1.7,3.4-2.3c0.9-0.3,3.5-1.1,7.8-2.2c6.2-1.7,10.6-3,13-4.1c2.5-1.1,4.4-2.6,5.8-4.6c1.4-2,2.1-4.5,2.1-7.5
							c0-2.9-0.9-5.7-2.6-8.3c-1.7-2.6-4.2-4.6-7.4-6c-3.2-1.4-6.9-2.1-10.9-2.1c-6.7,0-11.9,1.4-15.4,4.2S237.4,10,236.4,15.5z"/>
					</g>
					<g>
						<path id="ArialMT-73_00000109725316236537942720000009920576210735062414_" d="M286.4,15.5l8.7,1.4c0.5-3.5,1.8-6.1,4.1-8
							s5.3-2.8,9.4-2.8c4,0,7,0.8,9,2.5c2,1.6,2.9,3.6,2.9,5.8c0,2-0.9,3.5-2.6,4.7c-1.2,0.8-4.2,1.8-9,3c-6.4,1.6-10.9,3-13.4,4.2
							s-4.4,2.8-5.7,4.9c-1.3,2.1-1.9,4.4-1.9,7c0,2.3,0.5,4.4,1.6,6.4c1.1,2,2.5,3.6,4.3,4.9c1.4,1,3.2,1.8,5.6,2.5
							c2.4,0.7,4.9,1.1,7.6,1.1c4.1,0,7.6-0.6,10.7-1.8c3.1-1.2,5.4-2.8,6.8-4.8c1.5-2,2.5-4.7,3-8l-8.6-1.2
							c-0.4,2.7-1.5,4.7-3.4,6.2c-1.9,1.5-4.5,2.2-7.9,2.2c-4,0-6.9-0.7-8.6-2s-2.6-2.9-2.6-4.7c0-1.1,0.4-2.2,1.1-3.1
							c0.7-0.9,1.8-1.7,3.4-2.3c0.9-0.3,3.5-1.1,7.8-2.2c6.2-1.7,10.6-3,13-4.1c2.5-1.1,4.4-2.6,5.8-4.6c1.4-2,2.1-4.5,2.1-7.5
							c0-2.9-0.9-5.7-2.6-8.3c-1.7-2.6-4.2-4.6-7.4-6c-3.2-1.4-6.9-2.1-10.9-2.1c-6.7,0-11.9,1.4-15.4,4.2S287.4,10,286.4,15.5z"/>
					</g>
					<g>
						<path id="ArialMT-69_00000161608565631406637670000016692864092037836212_" d="M340,61.5v10.1h8.8V61.5H340z M340,0v51.9h8.8
							V0H340z"/>
					</g>
					<g>
						<path id="ArialMT-6f_00000133507384059019905680000010804246781241976240_" d="M358.9,25.9c0,9.6,2.7,16.7,8,21.3
							c4.5,3.8,9.9,5.8,16.3,5.8c7.1,0,12.9-2.3,17.5-7c4.5-4.7,6.8-11.1,6.8-19.4c0-6.7-1-11.9-3-15.8c-2-3.8-4.9-6.8-8.8-8.9
							c-3.8-2.1-8-3.2-12.5-3.2c-7.3,0-13.1,2.3-17.6,7C361.1,10.5,358.9,17.2,358.9,25.9z M367.9,25.9c0-6.6,1.4-11.6,4.3-14.9
							s6.5-5,10.9-5c4.4,0,8,1.7,10.9,5c2.9,3.3,4.3,8.4,4.3,15.2c0,6.4-1.5,11.3-4.4,14.6s-6.5,5-10.9,5c-4.4,0-8-1.6-10.9-4.9
							C369.4,37.5,367.9,32.6,367.9,25.9z"/>
					</g>
					<g>
						<path id="ArialMT-6e" d="M417.8,0v51.9h7.9v-7.4c3.8,5.7,9.3,8.5,16.5,8.5c3.1,0,6-0.6,8.6-1.7s4.6-2.6,5.9-4.4s2.2-4,2.7-6.5
							c0.3-1.6,0.5-4.5,0.5-8.5V0h-8.8v31.5c0,3.6-0.3,6.3-1,8c-0.7,1.8-1.9,3.2-3.6,4.2c-1.7,1.1-3.8,1.6-6.1,1.6
							c-3.8,0-7-1.2-9.7-3.6s-4.1-6.9-4.1-13.5V0H417.8z"/>
					</g>
					<g>
						<path id="ArialMT-20" d="M466.8,0"/>
					</g>
					<g>
						<path id="ArialMT-28" d="M518-21c-4.9,6.1-9,13.3-12.3,21.5c-3.3,8.2-5,16.7-5,25.5c0,7.8,1.2,15.2,3.8,22.3
							c2.9,8.2,7.5,16.4,13.6,24.6h6.3c-3.9-6.8-6.5-11.6-7.8-14.5c-2-4.5-3.6-9.2-4.7-14.1c-1.4-6.1-2.1-12.2-2.1-18.4
							c0-15.7,4.9-31.3,14.6-46.9H518z"/>
					</g>
					<g>
						<path id="ArialMT-71" d="M567.5-19.9V5.5c-1.4-1.9-3.3-3.5-5.8-4.8s-5.1-1.9-7.8-1.9c-6.2,0-11.5,2.5-15.9,7.4
							c-4.4,4.9-6.7,11.7-6.7,20.2c0,5.2,0.9,9.9,2.7,14c1.8,4.1,4.4,7.3,7.9,9.4c3.4,2.1,7.2,3.2,11.3,3.2c6.4,0,11.5-2.7,15.1-8.1
							v6.9h7.9v-71.7H567.5z M540.4,26.1c0-6.7,1.4-11.7,4.2-15s6.2-5,10.1-5c3.7,0,7,1.6,9.7,4.7c2.7,3.2,4.1,8,4.1,14.5
							c0,6.9-1.4,12.1-4.3,15.6c-2.8,3.5-6.2,5.2-10,5.2c-3.8,0-7-1.6-9.7-4.9S540.4,32.9,540.4,26.1z"/>
					</g>
					<g>
						<path id="ArialMT-75_00000072970415500731675530000017152653812037471376_" d="M624.1,0v7.6c-4-5.9-9.5-8.8-16.5-8.8
							c-3.1,0-5.9,0.6-8.6,1.8c-2.6,1.2-4.6,2.7-5.9,4.4c-1.3,1.8-2.2,4-2.7,6.5c-0.4,1.7-0.5,4.5-0.5,8.2v32.1h8.8V23.1
							c0-4.6,0.2-7.7,0.5-9.3c0.6-2.3,1.7-4.1,3.5-5.4s4-2,6.6-2s5.1,0.7,7.4,2s3.9,3.2,4.9,5.5c1,2.3,1.5,5.7,1.5,10.1v27.8h8.8V0
							H624.1z"/>
					</g>
					<g>
						<path id="ArialMT-65_00000138540601133441952190000008009770974568924557_" d="M681.2,16.7l9.1-1.1c-1.4-5.3-4.1-9.4-8-12.4
							c-3.9-2.9-8.8-4.4-14.8-4.4c-7.6,0-13.6,2.3-18,7c-4.4,4.7-6.7,11.2-6.7,19.7c0,8.7,2.2,15.5,6.7,20.3
							C654,50.6,659.8,53,667,53c6.9,0,12.6-2.4,17-7.1s6.6-11.4,6.6-19.9c0-0.5,0-1.3,0-2.3h-38.7c0.3-5.7,1.9-10.1,4.8-13.1
							c2.9-3,6.5-4.5,10.8-4.5c3.2,0,6,0.8,8.2,2.5C678.1,10.3,679.9,13,681.2,16.7z M652.3,30.9h29c-0.4,4.4-1.5,7.6-3.3,9.8
							c-2.8,3.4-6.4,5.1-10.9,5.1c-4,0-7.4-1.3-10.2-4S652.6,35.4,652.3,30.9z"/>
					</g>
					<g>
						<path id="ArialMT-72_00000154415050485446510190000018135807529722883719_" d="M701.2,0v51.9h7.9V44c2,3.7,3.9,6.1,5.6,7.3
							c1.7,1.2,3.6,1.8,5.6,1.8c3,0,6-0.9,9-2.8l-3-8.2c-2.1,1.3-4.3,1.9-6.4,1.9c-1.9,0-3.7-0.6-5.2-1.7s-2.6-2.8-3.3-4.8
							c-1-3.1-1.5-6.5-1.5-10.2V0H701.2z"/>
					</g>
					<g>
						<path id="ArialMT-79" d="M734.2-20l-1,8.2c1.9-0.5,3.6-0.8,5-0.8c2,0,3.5,0.3,4.7,1c1.2,0.6,2.1,1.6,2.9,2.7
							c0.6,0.9,1.4,3.1,2.7,6.5c0.2,0.5,0.4,1.2,0.8,2.2l-19.7,52h9.5l10.8-30c1.4-3.8,2.7-7.8,3.8-12c1,4,2.2,8,3.6,11.8l11.1,30.2
							h8.8L757.4-0.9c-2.1-5.7-3.8-9.6-4.9-11.8c-1.6-2.9-3.4-5-5.4-6.4c-2-1.4-4.4-2-7.2-2C738.2-21,736.3-20.7,734.2-20z"/>
					</g>
					<g>
						<path id="ArialMT-29" d="M790.4-21h-6.3c9.7,15.6,14.6,31.3,14.6,46.9c0,6.1-0.7,12.2-2.1,18.2c-1.1,4.9-2.7,9.6-4.6,14.1
							c-1.3,2.9-3.9,7.8-7.9,14.6h6.3c6.1-8.2,10.6-16.4,13.6-24.6c2.5-7.1,3.8-14.5,3.8-22.3c0-8.8-1.7-17.3-5.1-25.5
							C799.3-7.8,795.2-14.9,790.4-21z"/>
					</g>
				</g>
			</g>
			<g id="PathCollection_7">
				<g>
					<g>
						<path id="m85648bcb17" class="st3" d="M236.4,138.5c0.8,0,1.6-0.3,2.1-0.9c0.6-0.6,0.9-1.3,0.9-2.1c0-0.8-0.3-1.6-0.9-2.1
							c-0.6-0.6-1.3-0.9-2.1-0.9s-1.6,0.3-2.1,0.9c-0.6,0.6-0.9,1.3-0.9,2.1c0,0.8,0.3,1.6,0.9,2.1
							C234.9,138.2,235.6,138.5,236.4,138.5z"/>
					</g>
				</g>
			</g>
			<g id="text_4">
				<g transform="translate(239.04 136.572812)scale(0.04 -0.04)">
					<g>
						<path id="ArialMT-53" d="M4.5,23l8.9,0.8c0.4-3.6,1.4-6.5,3-8.8c1.6-2.3,4-4.1,7.2-5.6c3.3-1.4,6.9-2.1,11-2.1
							c3.6,0,6.8,0.5,9.6,1.6s4.8,2.5,6.2,4.4c1.4,1.9,2,3.9,2,6.1c0,2.2-0.7,4.2-2,5.9s-3.4,3.1-6.4,4.2c-1.9,0.8-6.2,1.9-12.8,3.5
							c-6.6,1.6-11.2,3.1-13.8,4.5c-3.4,1.8-6,4-7.7,6.7c-1.7,2.7-2.5,5.6-2.5,8.9c0,3.6,1,7,3.1,10.1c2.1,3.1,5,5.5,9,7.2
							c3.9,1.6,8.3,2.4,13.1,2.4c5.3,0,10-0.9,14-2.6c4.1-1.7,7.2-4.2,9.4-7.5c2.2-3.3,3.3-7.1,3.5-11.3l-9.1-0.7
							c-0.5,4.5-2.1,7.9-5,10.2c-2.8,2.3-7,3.5-12.5,3.5c-5.7,0-9.9-1.1-12.5-3.2c-2.6-2.1-3.9-4.6-3.9-7.6c0-2.6,0.9-4.7,2.8-6.4
							c1.8-1.7,6.6-3.4,14.3-5.1s13-3.3,15.8-4.6c4.2-1.9,7.2-4.4,9.2-7.3c2-2.9,3-6.3,3-10.2c0-3.8-1.1-7.4-3.3-10.8
							c-2.2-3.4-5.3-6-9.4-7.9C44.7-0.3,40.1-1.2,35-1.2c-6.5,0-11.9,0.9-16.3,2.8c-4.4,1.9-7.8,4.7-10.3,8.5
							C5.9,13.9,4.6,18.2,4.5,23z"/>
					</g>
					<g>
						<path id="ArialMT-65_00000050661077291968709820000017017588768429763203_" d="M108.8,16.7l9.1-1.1c-1.4-5.3-4.1-9.4-8-12.4
							c-3.9-2.9-8.8-4.4-14.8-4.4c-7.6,0-13.6,2.3-18,7c-4.4,4.7-6.7,11.2-6.7,19.7c0,8.7,2.2,15.5,6.7,20.3
							c4.5,4.8,10.3,7.2,17.5,7.2c6.9,0,12.6-2.4,17-7.1c4.4-4.7,6.6-11.4,6.6-19.9c0-0.5,0-1.3,0-2.3H79.4
							c0.3-5.7,1.9-10.1,4.8-13.1c2.9-3,6.5-4.5,10.8-4.5c3.2,0,6,0.8,8.2,2.5C105.7,10.3,107.5,13,108.8,16.7z M79.9,30.9h29
							c-0.4,4.4-1.5,7.6-3.3,9.8c-2.8,3.4-6.4,5.1-10.9,5.1c-4,0-7.4-1.3-10.2-4S80.2,35.4,79.9,30.9z"/>
					</g>
					<g>
						<path id="ArialMT-76" d="M143.3,0l-19.7,51.9h9.3L144,20.8c1.2-3.4,2.3-6.8,3.3-10.4c0.8,2.7,1.9,6,3.3,9.9l11.5,31.6h9
							L151.5,0H143.3z"/>
					</g>
					<g>
						<path id="ArialMT-65_00000041261100923957273370000013969404504546973078_" d="M214.4,16.7l9.1-1.1c-1.4-5.3-4.1-9.4-8-12.4
							c-3.9-2.9-8.8-4.4-14.8-4.4c-7.6,0-13.6,2.3-18,7c-4.4,4.7-6.7,11.2-6.7,19.7c0,8.7,2.2,15.5,6.7,20.3
							c4.5,4.8,10.3,7.2,17.5,7.2c6.9,0,12.6-2.4,17-7.1s6.6-11.4,6.6-19.9c0-0.5,0-1.3,0-2.3h-38.7c0.3-5.7,1.9-10.1,4.8-13.1
							c2.9-3,6.5-4.5,10.8-4.5c3.2,0,6,0.8,8.2,2.5C211.3,10.3,213.1,13,214.4,16.7z M185.5,30.9h29c-0.4,4.4-1.5,7.6-3.3,9.8
							c-2.8,3.4-6.4,5.1-10.9,5.1c-4,0-7.4-1.3-10.2-4S185.8,35.4,185.5,30.9z"/>
					</g>
					<g>
						<path id="ArialMT-72_00000052079703584260039170000017771546500073643942_" d="M234.4,0v51.9h7.9V44c2,3.7,3.9,6.1,5.6,7.3
							c1.7,1.2,3.6,1.8,5.6,1.8c3,0,6-0.9,9-2.8l-3-8.2c-2.1,1.3-4.3,1.9-6.4,1.9c-1.9,0-3.7-0.6-5.2-1.7s-2.6-2.8-3.3-4.8
							c-1-3.1-1.5-6.5-1.5-10.2V0H234.4z"/>
					</g>
					<g>
						<path id="ArialMT-65_00000134953853092254241750000017063657980805922463_" d="M303.3,16.7l9.1-1.1c-1.4-5.3-4.1-9.4-8-12.4
							c-3.9-2.9-8.8-4.4-14.8-4.4c-7.6,0-13.6,2.3-18,7c-4.4,4.7-6.7,11.2-6.7,19.7c0,8.7,2.2,15.5,6.7,20.3
							c4.5,4.8,10.3,7.2,17.5,7.2c6.9,0,12.6-2.4,17-7.1s6.6-11.4,6.6-19.9c0-0.5,0-1.3,0-2.3H274c0.3-5.7,1.9-10.1,4.8-13.1
							c2.9-3,6.5-4.5,10.8-4.5c3.2,0,6,0.8,8.2,2.5C300.2,10.3,302,13,303.3,16.7z M274.5,30.9h29c-0.4,4.4-1.5,7.6-3.3,9.8
							c-2.8,3.4-6.4,5.1-10.9,5.1c-4,0-7.4-1.3-10.2-4S274.8,35.4,274.5,30.9z"/>
					</g>
					<g>
						<path id="ArialMT-20_00000149366870743043159840000002864716923920561793_" d="M316.8,0"/>
					</g>
					<g>
						<path id="ArialMT-28_00000029742896957267397670000009830016821897906851_" d="M368-21c-4.9,6.1-9,13.3-12.3,21.5
							c-3.3,8.2-5,16.7-5,25.5c0,7.8,1.2,15.2,3.8,22.3c2.9,8.2,7.5,16.4,13.6,24.6h6.3c-3.9-6.8-6.5-11.6-7.8-14.5
							c-2-4.5-3.6-9.2-4.7-14.1c-1.4-6.1-2.1-12.2-2.1-18.4c0-15.7,4.9-31.3,14.6-46.9H368z"/>
					</g>
					<g>
						<path id="ArialMT-71_00000139295902326497389770000003181787167588725381_" d="M417.6-19.9V5.5c-1.4-1.9-3.3-3.5-5.8-4.8
							s-5.1-1.9-7.8-1.9c-6.2,0-11.5,2.5-15.9,7.4c-4.4,4.9-6.7,11.7-6.7,20.2c0,5.2,0.9,9.9,2.7,14c1.8,4.1,4.4,7.3,7.9,9.4
							c3.4,2.1,7.2,3.2,11.3,3.2c6.4,0,11.5-2.7,15.1-8.1v6.9h7.9v-71.7H417.6z M390.5,26.1c0-6.7,1.4-11.7,4.2-15s6.2-5,10.1-5
							c3.7,0,7,1.6,9.7,4.7c2.7,3.2,4.1,8,4.1,14.5c0,6.9-1.4,12.1-4.3,15.6c-2.8,3.5-6.2,5.2-10,5.2c-3.8,0-7-1.6-9.7-4.9
							S390.5,32.9,390.5,26.1z"/>
					</g>
					<g>
						<path id="ArialMT-75_00000132074417288840984910000014917305547363553961_" d="M474.1,0v7.6c-4-5.9-9.5-8.8-16.5-8.8
							c-3.1,0-5.9,0.6-8.6,1.7c-2.6,1.2-4.6,2.7-5.9,4.4c-1.3,1.8-2.2,4-2.7,6.5c-0.4,1.7-0.5,4.5-0.5,8.2v32.1h8.8V23.1
							c0-4.6,0.2-7.7,0.5-9.3c0.6-2.3,1.7-4.1,3.5-5.4s4-2,6.6-2s5.1,0.7,7.4,2s3.9,3.2,4.9,5.5c1,2.3,1.5,5.7,1.5,10.1v27.8h8.8V0
							H474.1z"/>
					</g>
					<g>
						<path id="ArialMT-65_00000058584957467385385350000015455653794100424596_" d="M531.3,16.7l9.1-1.1c-1.4-5.3-4.1-9.4-8-12.4
							c-3.9-2.9-8.8-4.4-14.8-4.4c-7.6,0-13.6,2.3-18,7c-4.4,4.7-6.7,11.2-6.7,19.7c0,8.7,2.2,15.5,6.7,20.3
							c4.5,4.8,10.3,7.2,17.5,7.2c6.9,0,12.6-2.4,17-7.1s6.6-11.4,6.6-19.9c0-0.5,0-1.3,0-2.3h-38.7c0.3-5.7,1.9-10.1,4.8-13.1
							c2.9-3,6.5-4.5,10.8-4.5c3.2,0,6,0.8,8.2,2.5C528.1,10.3,529.9,13,531.3,16.7z M502.4,30.9h29c-0.4,4.4-1.5,7.6-3.3,9.8
							c-2.8,3.4-6.4,5.1-10.9,5.1c-4,0-7.4-1.3-10.2-4S502.7,35.4,502.4,30.9z"/>
					</g>
					<g>
						<path id="ArialMT-72_00000025431474135504644930000008356067664875613067_" d="M551.3,0v51.9h7.9V44c2,3.7,3.9,6.1,5.6,7.3
							c1.7,1.2,3.6,1.8,5.6,1.8c3,0,6-0.9,9-2.8l-3-8.2c-2.1,1.3-4.3,1.9-6.4,1.9c-1.9,0-3.7-0.6-5.2-1.7s-2.6-2.8-3.3-4.8
							c-1-3.1-1.5-6.5-1.5-10.2V0H551.3z"/>
					</g>
					<g>
						<path id="ArialMT-79_00000062872184839398184020000016054060619078309810_" d="M584.3-20l-1,8.2c1.9-0.5,3.6-0.8,5-0.8
							c2,0,3.5,0.3,4.7,1c1.2,0.6,2.1,1.6,2.9,2.7c0.6,0.9,1.4,3.1,2.7,6.5c0.2,0.5,0.4,1.2,0.8,2.2l-19.7,52h9.5l10.8-30
							c1.4-3.8,2.7-7.8,3.8-12c1,4,2.2,8,3.6,11.8l11.1,30.2h8.8L607.5-0.9c-2.1-5.7-3.8-9.6-4.9-11.8c-1.6-2.9-3.4-5-5.4-6.4
							c-2-1.4-4.4-2-7.2-2C588.2-21,586.4-20.7,584.3-20z"/>
					</g>
					<g>
						<path id="ArialMT-29_00000066487219302192395550000014559979121124201102_" d="M640.4-21h-6.3c9.7,15.6,14.6,31.3,14.6,46.9
							c0,6.1-0.7,12.2-2.1,18.2c-1.1,4.9-2.7,9.6-4.6,14.1c-1.3,2.9-3.9,7.8-7.9,14.6h6.3c6.1-8.2,10.6-16.4,13.6-24.6
							c2.5-7.1,3.8-14.5,3.8-22.3c0-8.8-1.7-17.3-5.1-25.5C649.3-7.8,645.2-14.9,640.4-21z"/>
					</g>
				</g>
			</g>
			<g id="PathCollection_8">
				<g>
					<g>
						<path id="m04f4f006c4" class="st4" d="M236.4,144.2c0.8,0,1.6-0.3,2.1-0.9c0.6-0.6,0.9-1.3,0.9-2.1c0-0.8-0.3-1.6-0.9-2.1
							c-0.6-0.6-1.3-0.9-2.1-0.9s-1.6,0.3-2.1,0.9c-0.6,0.6-0.9,1.3-0.9,2.1c0,0.8,0.3,1.6,0.9,2.1
							C234.9,143.9,235.6,144.2,236.4,144.2z"/>
					</g>
				</g>
			</g>
			<g id="text_5">
				<g transform="translate(239.04 142.277813)scale(0.04 -0.04)">
					<g>
						<path id="ArialMT-63_00000101814765791537828760000015003361957414067100_" d="M40.4,19l8.6-1.1c-0.9-6-3.4-10.6-7.3-14
							c-3.9-3.4-8.7-5-14.3-5c-7.1,0-12.8,2.3-17.1,7c-4.3,4.6-6.5,11.3-6.5,20c0,5.6,0.9,10.5,2.8,14.7c1.9,4.2,4.7,7.4,8.5,9.5
							C18.9,52,23.1,53,27.5,53c5.6,0,10.2-1.4,13.8-4.3c3.6-2.8,5.9-6.9,6.9-12.1l-8.5-1.3c-0.8,3.5-2.3,6.1-4.3,7.9
							c-2.1,1.8-4.6,2.6-7.5,2.6c-4.4,0-8-1.6-10.8-4.8c-2.8-3.2-4.1-8.2-4.1-15c0-7,1.3-12,4-15.2c2.7-3.2,6.2-4.7,10.5-4.7
							c3.4,0,6.3,1.1,8.6,3.2S39.8,14.6,40.4,19z"/>
					</g>
					<g>
						<path id="ArialMT-6f_00000176722743079135404880000000067596245546808449_" d="M53.3,25.9c0,9.6,2.7,16.7,8,21.3
							c4.5,3.8,9.9,5.8,16.3,5.8c7.1,0,12.9-2.3,17.5-7c4.5-4.7,6.8-11.1,6.8-19.4c0-6.7-1-11.9-3-15.8c-2-3.8-4.9-6.8-8.8-8.9
							c-3.8-2.1-8-3.2-12.5-3.2c-7.3,0-13.1,2.3-17.6,7C55.6,10.5,53.3,17.2,53.3,25.9z M62.4,25.9c0-6.6,1.4-11.6,4.3-14.9
							c2.9-3.3,6.5-5,10.9-5c4.4,0,8,1.7,10.9,5c2.9,3.3,4.3,8.4,4.3,15.2c0,6.4-1.5,11.3-4.4,14.6c-2.9,3.3-6.5,5-10.9,5
							c-4.4,0-8-1.6-10.9-4.9C63.8,37.5,62.4,32.6,62.4,25.9z"/>
					</g>
					<g>
						<path id="ArialMT-6e_00000106118352870090370770000010493012915910954397_" d="M112.2,0v51.9h7.9v-7.4
							c3.8,5.7,9.3,8.5,16.5,8.5c3.1,0,6-0.6,8.6-1.7s4.6-2.6,5.9-4.4s2.2-4,2.7-6.5c0.3-1.6,0.5-4.5,0.5-8.5V0h-8.8v31.5
							c0,3.6-0.3,6.3-1,8c-0.7,1.8-1.9,3.2-3.6,4.2c-1.7,1.1-3.8,1.6-6.1,1.6c-3.8,0-7-1.2-9.7-3.6S121,35,121,28.3V0H112.2z"/>
					</g>
					<g>
						<path id="ArialMT-74_00000170984410157273453200000010147313381811185285_" d="M187,7.9l1.3-7.8c-2.5-0.5-4.7-0.8-6.6-0.8
							c-3.2,0-5.7,0.5-7.4,1.5c-1.8,1-3,2.3-3.7,4s-1.1,5.1-1.1,10.4V45H163v6.8h6.4v12.8l8.7,5.3V51.9h8.8V45h-8.8V14.7
							c0-2.5,0.2-4.1,0.5-4.8c0.3-0.7,0.8-1.3,1.5-1.7c0.7-0.4,1.7-0.6,3-0.6C184.1,7.5,185.4,7.6,187,7.9z"/>
					</g>
					<g>
						<path id="ArialMT-72_00000123435895959578038610000013506707362789924501_" d="M195.5,0v51.9h7.9V44c2,3.7,3.9,6.1,5.6,7.3
							c1.7,1.2,3.6,1.8,5.6,1.8c3,0,6-0.9,9-2.8l-3-8.2c-2.1,1.3-4.3,1.9-6.4,1.9c-1.9,0-3.7-0.6-5.2-1.7s-2.6-2.8-3.3-4.8
							c-1-3.1-1.5-6.5-1.5-10.2V0H195.5z"/>
					</g>
					<g>
						<path id="ArialMT-6f_00000058572720435871593710000006072994409628812983_" d="M225.6,25.9c0,9.6,2.7,16.7,8,21.3
							c4.5,3.8,9.9,5.8,16.3,5.8c7.1,0,12.9-2.3,17.5-7c4.5-4.7,6.8-11.1,6.8-19.4c0-6.7-1-11.9-3-15.8c-2-3.8-4.9-6.8-8.8-8.9
							c-3.8-2.1-8-3.2-12.5-3.2c-7.3,0-13.1,2.3-17.6,7C227.9,10.5,225.6,17.2,225.6,25.9z M234.7,25.9c0-6.6,1.4-11.6,4.3-14.9
							s6.5-5,10.9-5c4.4,0,8,1.7,10.9,5c2.9,3.3,4.3,8.4,4.3,15.2c0,6.4-1.5,11.3-4.4,14.6s-6.5,5-10.9,5c-4.4,0-8-1.6-10.9-4.9
							C236.1,37.5,234.7,32.6,234.7,25.9z"/>
					</g>
					<g>
						<path id="ArialMT-6c" d="M284.3,0v71.6h8.8V0H284.3z"/>
					</g>
				</g>
			</g>
		</g>
	</g>
</g>
</svg>
